<?xml version="1.0" encoding="utf-8"?>
<!-- Generator: Adobe Illustrator 16.0.0, SVG Export Plug-In . SVG Version: 6.00 Build 0)  -->
<!DOCTYPE svg PUBLIC "-//W3C//DTD SVG 1.1//EN" "http://www.w3.org/Graphics/SVG/1.1/DTD/svg11.dtd">
<svg version="1.1" id="Capa_1" xmlns="http://www.w3.org/2000/svg" xmlns:xlink="http://www.w3.org/1999/xlink" x="0px" y="0px"
	 width="34px" height="34px" viewBox="0 0 34 34" enable-background="new 0 0 34 34" xml:space="preserve">
<g>
	<g>
		<path fill="#FFFFFF" d="M31.6,23.4c0-0.5,0.4-0.9,0.9-0.9s0.9,0.4,0.9,0.9v8.7c0,0.5-0.4,0.9-0.9,0.9H0.9C0.4,33,0,32.6,0,32.1
			v-8.7c0-0.5,0.4-0.9,0.9-0.9c0.5,0,0.9,0.4,0.9,0.9v7.8h29.8V23.4z M25.3,17.5c0.4-0.4,0.4-0.9,0-1.3c-0.3-0.4-0.9-0.4-1.3,0
			l-6.4,6.4V1.5c0-0.5-0.4-0.9-0.9-0.9c-0.5,0-0.9,0.4-0.9,0.9v21.2l-6.4-6.4c-0.4-0.4-0.9-0.4-1.3,0c-0.4,0.4-0.4,0.9,0,1.3l8,8
			c0.3,0.3,0.9,0.3,1.3,0L25.3,17.5z"/>
	</g>
</g>
</svg>
