<?xml version="1.0" encoding="utf-8"?>
<!-- Generator: Adobe Illustrator 16.0.0, SVG Export Plug-In . SVG Version: 6.00 Build 0)  -->
<!DOCTYPE svg PUBLIC "-//W3C//DTD SVG 1.1//EN" "http://www.w3.org/Graphics/SVG/1.1/DTD/svg11.dtd">
<svg version="1.1" id="Capa_1" xmlns="http://www.w3.org/2000/svg" xmlns:xlink="http://www.w3.org/1999/xlink" x="0px" y="0px"
	 width="320px" height="90px" viewBox="0 0 320 90" enable-background="new 0 0 320 90" xml:space="preserve">
<path fill="#FFFFFF" d="M31.7,85.2c0,1.1-1.4,1.8-2,2.2c-1,0.1-2.1,0.1-3.2,0.1c-1.9,0-3.7-0.3-5.2-1.1C18.9,86.2,16.4,86,14,86
	c-0.9,0-1.8,0.1-2.7,0.1c-0.9,0-1.4,1.1-2.1,1.2c-0.6,0.2-1.3,0.4-2,0.4c-0.7,0-1.5-0.1-2.1-0.4c-0.4-1.1-0.4-2.1,0.2-3
	c1.9-1.3,4.5-0.9,6.4-1.8c1.7-1.6,1-4.1,1.8-6.1c0.2-1.4,0.1-2.6,0-4c-0.3-2.4,1.2-4.5,0.4-6.6c0.4-3.6-0.4-4.8,0.2-8.4
	c-0.3-0.9,0.2-1.8-0.5-2.7c-0.2-2.1,0.2,3.6-0.2,1.2c0.2-2.1-0.2-4,0.2-6.3c1.2-1.8,0.2-4,0-6.2c-0.2-0.7,0.2-1.9-0.7-2.6
	c-1.2-1.8-3.1-2.7-5.2-2.7c-0.7,0-1,0.1-1.1,0.1c-0.7,0-0.6-1.1-1.2-1.6c0.2-0.5,0.5-1.2,1.3-1.4C7.1,35.1,7.7,35,8.4,35
	c1.2,0,2.8,0.2,4.9,0.2c0.6,0,2.3-0.1,4.1-0.1c1.3,0,2.8,0.1,3.9,0.2c3.7-0.4,6.2-0.8,7-0.8c0.7,0,1.3,0.4,2,1c0,0.9,0,1.7-0.6,2.4
	c-2.1,0.5-3.8,0.4-6,0.6c-2.6,0.8-1.6,3.9-2.3,5.8c0.2,1.8,0.2,3.6,0.2,5.4c1.1,2-0.2,4.4,0,6.5c0.9,3.8-1.4-0.4-0.2,3.3
	c-0.2,0.5,0,1.1,0.2,1.6c-0.4,1.5,0,2.7-0.2,4.1c0.4,0.7,0,1.2,0.2,1.9c0.2,0.6,0.2-0.7,0.5-0.2c0.4,1.2-0.5,2.6-0.2,3.9
	c0.2,2.7,0.4,5.5,0,8.4c0.2,1.1,0.4,2.3,1.1,3.2c1.1,0.7,2.2,1.1,3.3,1.1c1.1,1.1,2.4,0.5,3.6,0.5C30.5,84,31.7,84.3,31.7,85.2
	 M77.3,81.7c0.2-1.4,0.2-2.6,0-3.9c-0.6-0.9,0.5-1.9-0.3-2.7c0.6-0.9-0.3-1.6,0.3-2.6c-0.8-1.6-0.3-3.4-0.6-5.2
	c-0.5-1.1,0-2.3-0.4-3.6c-0.2-0.5,0.2-1.4-0.2-1.9c0.5-0.9,1.5-1.8,1.3-3.1c-0.6-0.5-0.4-1.4-1-1.9c0.2-0.9-0.4-1.8-0.2-2.8
	c-1.1-0.5-0.4-2-1.8-2.4c0-1.4-1.8-1.2-2.3-2.5c-0.9-0.4-1.8-0.4-2.7-0.7c-2.1,0-4.5-0.7-6.4,0.2c-2.3,0-4,1.8-6.3,2.1
	c-1.8,0.7-3,2.6-5,2.9c-0.7-0.4,0-1.7-0.5-2c0.4-0.5,0.2-1.4,0.2-2.1c-1.4-2.1-3.7,0.2-5.8,0.3c-1.1,1.1-2.8,1.1-4.5,1.9
	c-1.4,0-1.8,0.9-1.6,2.2c1.3,1.1,3.4,0.8,4.6,1.5c0.9,0.9,0.2,2.6,0.9,3.5c0.2,0.4,0.3,0.6,0.3,1c0,1-0.5,1.9-0.3,2.8
	c-0.4,0.9-0.6,2.3-0.6,3c0,0.3,0.1,0.7,0.1,1.1c0.9,1.2,0.2,2.6,0.7,3.9c-0.5,1.1,0.5,2,0.2,3.3c-0.4,0.6-0.5,1.3-0.5,2
	c0,1.1,0.2,2.1,0,3.2c-0.5,0.9-0.2,2.1-0.7,3c-1.4,1.3-3.3,1.3-5,1.8c-0.7,0.3-0.9,1.9-0.9,2.1c0.6,0.4,1,1.4,1.7,1.4
	c0.4,0,2.6-0.8,5.1-0.8c1,0,1.8,0.1,2.7,0.3c3.3-0.7,6.4,0.5,9.6,0.2c0.7-0.5,2-0.9,1.6-1.8c-0.5-0.5-0.2-1.2-0.9-1.2
	c-2.3-0.5-5.5,0.2-7.1-2c0-1,0.3-6.4,0.3-7c0.5-0.9,0-1.8,0.4-2.8c-0.9-1.4,0-2.7,0-3.9c0-1,0.1-1.7,0.1-2.4c0-0.7-0.1-1.3-0.3-2
	c-0.4-1.8-0.2-3.5-0.4-5.5c0.4-1.4,2.1-1.6,3.1-2.6c2.5-1.1,4.8-2.5,7.5-3.3c3.2-1.2,5.5,1.1,7.8,2.9c0.2,0.2,0.2,0.5,0.2,0.7
	c0.9,1.1,0,2.5,0.2,3.8c0.7,0.5-0.3,1.6,0.5,2.1c0.5,2.1,0,4.3-0.2,6.4c0.7,0.5-0.5,1.8,0.5,2.4c-0.3,2.9-0.2,4.7-0.4,7.4
	c0.4,1.9-0.4,4-1.1,5c-1.1,0.6-2.6,0.4-3.4,0.7c-1.1,0.4-2,0.3-2.5,1.3c-0.3,0.8,0.2,1.4,0.4,1.9c0.4,0.5,0.7,0.5,1.4,0.5
	c0.9-1,2.7-0.2,4-1.1c3.6,0,7.1,0.9,10.6,0.4c1.2,0.2,2.7,0.4,3.5,0.4s1.5-0.9,1.5-1.9c0-2.1-1.7-2.2-4-2.2c-0.7,0-1.5,0-2.3-0.2
	C77.7,83,78,81.8,77.3,81.7 M104,51.9c1.8,0.5,3.3-0.6,4.8,1.1c1.2,0.4,2.5,1.1,3.1,2c0.9,1.7,0.3,0.9,1.1,2.5
	c0.5,1.1,0.9,1.7,1.7,2c1.4-0.3,2-1.4,1.8-3.8c0.2-2.4,0.3-4.1-0.3-4.7c-1.2-1.1-2.5-1.4-4.1-2.2c-0.9-0.5-2.4-0.6-3.4-0.6
	c-1.1,0-2.2,0.4-3.1,0c-2.5,0.4-5.2,0.5-7.1,1.7c-0.2,1-1.2,1-1.8,1.7c-0.9,0.7-1.4,1.7-2.2,2.6c-0.2,1.6-1.4,2.8-1.4,4.1
	c0,0.3,0.1,0.6,0.2,1.1c-0.5,1.1,0.7,1.8,0.4,3.1c0.9,0.5,0,1.8,1.2,2.1c0,1.1,1.1,0.7,1.3,1.8c0.7,0.9,2.2,0.5,3,2.2
	c1.5,1.2,3.3,1.4,4.8,1.9c0.7,1.8,2.1,1.8,3.4,2.7c0.4,1.1,1.9,1.1,1.9,2.3c1.2,0.2,1,1.6,1.8,2.4c0,0.5,0.2,1.4,0.2,1.8
	c0,0.4-0.1,1.1-0.3,1.6c-0.4,0.7-1.2,2.1-2.1,2.3c-1.4,1.5-3.2,1.4-4.9,1.9c-1.9,0-4.4-0.6-5.5-2.6C97,82.6,97.4,81,96,80.7
	c0-1.1-1.4-1.1-1.1-1.9c-0.8-1.8-1.2-3-2.9-3c-0.9,0-0.7,1.2-0.9,1.8c0.2,1.7,0.1,3,0.3,4.4c0.2,1.2-0.3,2.5,1.1,2.8
	c0.3,1.2,1.8,0.5,2.2,1.3c1,0.9,2,1.1,3.1,1.8c2.6,1,5.2,0.1,7.5,0.3c1.2-1.1,2.6-0.2,3.9-1.2c2.1-1.1,4.5-2.1,5.7-4.3
	c2.3-0.7,1.4-3.2,2.6-4.6c0.1-0.2,0.1-0.3,0.1-0.5c0-1.1-0.6-1.9-0.4-2.7c-1.1-0.7-0.5-1.9-1.4-2.5c0.4-1.5-1.6-1.5-1.6-2.7
	c-1.1-0.2-1.3-1.1-1.9-1.8c-1.4-0.5-2.5-1.6-3.9-1.9c-1.1-1.5-2.9-1.3-4.1-2.1c-0.7-0.5-1.1-1.2-1.9-1.4c-0.7-1.2-2.4-1.1-2.9-1.9
	c-0.2-1.1-1.8-1.4-1-2.9c-0.3-0.3-0.7-0.5-0.7-0.7c0-0.6,0.8-1.1,0.5-2.1c0.5,0,0.2-0.1,0.4-0.4c1.1-1.1,2.6-2.4,4.9-2.4L104,51.9
	 M151.3,83.2c0.2-0.5-0.4-1.3-0.9-1.5c-1.2-0.2-1.9,0.5-2.9,1.4c-1.8,1-3.8,1.2-5.6,0.9c-1.5-0.3-3-0.9-4.1-1.9
	c0-0.5-0.2-1.1-0.5-1.4c-0.2-2.4-0.7-4.7-0.5-7c0.5-0.5,0.2-1.4,0.3-2.3c-0.9-0.5,0-1.6-0.7-2.3c-0.2-1.7,0.4-3.1,0.2-4.8
	c-0.2-0.7,0.5-1.2,0-1.8c0-2.2,0-4.8,0.5-7.2c0.5-0.4,0.5-0.9,0.5-1.4c0.2-0.5,0.7-0.5,1-0.7c1.1,0.5,2.5,0.2,3.8,0.4
	c1.9,0,3.9-1.8,5.5-0.2c1.2,0.5,2.8,0.2,3.3-1.1c0.7-0.7,0.2-2.1-0.4-2.9c-3.1-0.6-6.1,0-9.1,0c-1.4,0.2-3.2,0.2-4.6-0.4
	c-0.2-1.9-0.9-4,0-5.9c-0.4-0.5,0-1.1-0.2-1.6c-0.5-0.4-1.1-0.2-1.5,0.2c-2.5,2.5-4.8,5-7.8,6.4c-0.3,0.4-0.7,0.9-1.1,1.1
	c-0.4,0.7-0.9,1.7-0.2,2.6c0.5,1.2,2.1,0.7,3.2,1.4c0,1.1,0.6,2.1,0.8,3.4c-0.2,0.5-0.2,0.9,0.2,1.2c-1,2.1-0.2,4.8-0.6,7
	c-0.7,2.1-0.4,4.5,0.1,6.6c-0.5,1.2,0.1,2.8-0.3,4.2c0.1,1.2,0.4,2.6,0,3.9c0,1.1,0,2.6,0.4,3.3c0.2,1.2,0.5,1.5,1.4,2.4
	c0.7,0.5,1.6,0.5,2.1,1.3c1.4,0.7,3.1,2.6,4.7,1.1c1.2-0.5,1.9,0.9,3,0.7c2.2-0.7,4.3-0.8,6.2-1.9C149.2,85.4,151,84.8,151.3,83.2
	 M173.8,37.1c-0.4-0.7,0.2-1.8-0.8-2.3c-0.1-0.9-1.3-1-1.7-1.7c-1.4-1.1-3.3-0.6-5.1-0.8c-1.9,1.4-2.4,3.4-2.8,5.2
	c-0.3,1.7,1.3,1.7,1.8,2.9c1.4,0.6,2.4,2.2,4.1,1.7c0.9,0,1.5-0.7,2-1.3C173.1,40.6,173.1,38.5,173.8,37.1 M181.3,85.3
	c-0.4-2-3.3-1.6-7-2.1c-0.2-0.9-1.7-1.3-1.1-2.4c-0.6-1.8,0.9-3.4,0.5-4.5c-0.4-1.3,0.2-2.6-0.6-3.6c0.2-1.1-0.2-1.8,0-2.8
	c-0.9-0.5-0.4-1.7-0.9-2.4c0.5-1.2-0.2-2.8,0.5-4.1c0.2-1.5,0.4-2.9,0.4-4.3c-0.4-1.2,0.2-2.5-0.4-3.6c0.4-1.9,0.5-3.7,0-5.5
	c-0.9-2.1-3.5-1.6-4.8-0.5c-1.8,2.6-5.5,0.9-7.6,3.1c-0.5,0.9-0.5,1.9,0.5,2.5c1.5-0.7,2.7,0.8,3.8,1.3c0.4,0.8,0.9,1.6,0.4,2.6
	c1.4,1.1,1.1,3,0.7,4.7c-0.2,2.8,0.9,5.9,0.5,8.7c0.2,1.6,0.2,3.3,0.4,4.7c-1.1,1.8-0.5,3.9-1.6,5.7c-0.9,0.5-1.8,0.5-2.6,0.7
	c-1.3,1.2-3.4,0.2-4.3,1.6c-0.4,1.1,0.5,1.5,0.9,2.3c1.6,0.9,3.3-0.4,5-0.6c1.4,0.6,3.4,0,5.2,0.2c1.6,0,3.4-1.1,4.8,0
	c2.3,0.3,4.6,1,6.1,0.4C180.9,87,181.6,86.2,181.3,85.3 M226.2,81.7c0.2-1.4,0.2-2.6,0-3.9c-0.6-0.9,0.5-1.9-0.3-2.7
	c0.6-0.9-0.3-1.6,0.3-2.6c-0.8-1.6-0.3-3.4-0.6-5.2c-0.5-1.1,0-2.3-0.4-3.6c-0.2-0.5,0.2-1.4-0.2-1.9c0.5-0.9,1.5-1.8,1.3-3.1
	c-0.6-0.5-0.4-1.4-1-1.9c0.2-0.9-0.4-1.8-0.2-2.8c-1.1-0.5-0.4-2-1.8-2.4c0-1.4-1.8-1.2-2.3-2.5c-0.9-0.4-1.9-0.4-2.7-0.7
	c-2.1,0-4.5-0.7-6.4,0.2c-2.3,0-4,1.8-6.2,2.1c-1.8,0.7-3,2.6-5,2.9c-0.7-0.4,0-1.7-0.5-2c0.4-0.5,0.2-1.4,0.2-2.1
	c-1.4-2.1-3.7,0.2-5.8,0.3c-1.1,1.1-2.8,1.1-4.5,1.9c-1.4,0-1.8,0.9-1.6,2.2c1.3,1.1,3.3,0.8,4.6,1.5c0.9,0.9,0.2,2.6,0.9,3.5
	c0.2,0.4,0.3,0.6,0.3,1c0,1-0.5,1.9-0.3,2.8c-0.4,0.9-0.6,2.3-0.6,3c0,0.3,0.1,0.7,0.1,1.1c0.9,1.2,0.2,2.6,0.7,3.9
	c-0.5,1.1,0.5,2,0.2,3.3c-0.4,0.6-0.5,1.3-0.5,2c0,1.1,0.2,2.1,0,3.2c-0.5,0.9-0.2,2.1-0.7,3c-1.4,1.3-3.3,1.3-5,1.8
	c-0.7,0.3-0.9,1.9-0.9,2.1c0.6,0.4,1,1.4,1.7,1.4c0.4,0,2.6-0.8,5.1-0.8c1,0,1.8,0.1,2.7,0.3c3.3-0.7,6.4,0.5,9.6,0.2
	c0.7-0.5,2-0.9,1.6-1.8c-0.5-0.5-0.2-1.2-0.9-1.2c-2.3-0.5-5.5,0.2-7.1-2c0-1,0.4-6.4,0.4-7c0.5-0.9,0-1.8,0.4-2.8
	c-0.9-1.4,0-2.7,0-3.9c0-1,0.1-1.7,0.1-2.4c0-0.7-0.1-1.3-0.3-2c-0.4-1.8-0.2-3.5-0.4-5.5c0.4-1.4,2.1-1.6,3.1-2.6
	c2.5-1.1,4.8-2.5,7.5-3.3c3.2-1.2,5.5,1.1,7.8,2.9c0.2,0.2,0.2,0.5,0.2,0.7c0.9,1.1,0,2.5,0.2,3.8c0.7,0.5-0.4,1.6,0.5,2.1
	c0.5,2.1,0,4.3-0.2,6.4c0.7,0.5-0.5,1.8,0.5,2.4c-0.3,2.9-0.2,4.7-0.4,7.4c0.4,1.9-0.3,4-1.1,5c-1.1,0.6-2.6,0.4-3.4,0.7
	c-1.1,0.4-2,0.3-2.5,1.3c-0.4,0.8,0.2,1.4,0.3,1.9c0.4,0.5,0.7,0.5,1.4,0.5c0.9-1,2.7-0.2,4-1.1c3.6,0,7.1,0.9,10.6,0.4
	c1.2,0.2,2.7,0.4,3.5,0.4c0.8,0,1.5-0.9,1.5-1.9c0-2.1-1.7-2.2-4-2.2c-0.7,0-1.5,0-2.3-0.2C226.6,83,226.9,81.8,226.2,81.7
	 M273.1,76.3c-0.4-0.5-0.9-0.4-1.2-0.9c-1.7-0.7-2,1.4-3.4,2c-1.1,1.1-1.9,2.5-3.3,3.2c-1.4,1.3-3.3,2-5.2,2c-0.6,0-1.2,0-1.8-0.1
	c-1.6,0-2.8-0.9-4.2-1.6c-1.7,0-1.7-1.8-3.1-2.1c0.2-1.2-1.6-1.1-1.4-2.4c-1.6-0.4-0.4-2.1-1.8-2.6c0.2-1.1-1.1-1.6-0.2-2.6
	c-0.8-0.9-0.4-2.1-0.2-3c-0.8-0.9,0.5-1.8,0-2.6c0.7-0.6-0.4-1.3,0.2-2c-0.2-1,0.2-1.9-0.2-2.8c0.5-1.1-0.4-2.4,1.1-2.9
	c-0.4-0.5,0.3-0.7,0.3-1.2c0.5-0.4,0.7-1.1,1.2-1.6c0-1.2,1.6-0.9,1.9-2c1.7-0.5,3.6-0.4,4.7-1.9c2.6-0.5,4,1.8,5.5,3.3
	c0.4,1.2,1.4,1.6,2.3,2.3c0.6,0.9,1.7,1.2,2.4,2.1c1,0.5,2.1-0.4,3.2-0.7c0.2-0.7,0.5-1.4,1.1-1.9c-0.4-0.5,0.5-1.6-0.6-1.9
	c0.8-1.5-0.9-1.8-1.4-2.9c-2.1-0.5-3.7-2.3-5.9-3c-1.9,1.4-4.3-0.2-6.4,0c-2.1,1.2-5,0.7-6.8,2.5c0.2,1.2-1.4,0.9-1.8,1.8
	c-1.3,1.5-3.1,1.9-3.8,3.4c-0.4,0.5-1.1,1.2-1.1,1.9c-0.9,0.5-0.5,1.6-1.4,1.8c0.2,0.7-1,0.9-0.4,1.6c-0.8,0.7-0.4,1.8-1.1,2.5
	c0.2,0.7,0,1.4-0.5,2.2c-0.7,0.7-0.4,1.8-0.4,2.6c0.9,0.9,0,1.9,0.2,2.9c-0.7,0.7-0.2,1.8-0.4,2.6c-0.5,1.2,1.1,1.6,0.5,3
	c0.9,0.6,0.2,1.9,1.5,2.4c-0.2,1.2,1.4,1.2,1.4,2.5c1.1,1.2,2.6,2,3.7,3.4c2.2,0.2,3.6,2.1,5.9,1.8c0.4,0.3,1.1,0.5,1.7,0.3
	c0.3,0.4,0.9,0.5,1.2,0.5c0.5,0,1,0.2,1.4,0.2c1.3,0,3.4-1.4,5-1.8c1.8-0.4,3.8-1.1,5-2.6c0.5-0.2,1.2-0.2,1.6-1
	c0.2-1.8,1.9-2.8,3.1-4.2C272.3,78.3,272.8,77.4,273.1,76.3 M306.5,83.2c0.2-0.5-0.4-1.3-0.9-1.5c-1.2-0.2-1.9,0.5-2.9,1.4
	c-1.8,1-3.8,1.2-5.6,0.9c-1.5-0.3-3-0.9-4.1-1.9c0-0.5-0.2-1.1-0.5-1.4c-0.2-2.4-0.7-4.7-0.5-7c0.5-0.5,0.2-1.4,0.4-2.3
	c-0.9-0.5,0-1.6-0.7-2.3c-0.2-1.7,0.4-3.1,0.2-4.8c-0.2-0.7,0.5-1.2,0-1.8c0-2.2,0-4.8,0.5-7.2c0.5-0.4,0.5-0.9,0.5-1.4
	c0.2-0.5,0.7-0.5,1.1-0.7c1.1,0.5,2.5,0.2,3.8,0.4c1.9,0,3.9-1.8,5.5-0.2c1.2,0.5,2.8,0.2,3.3-1.1c0.7-0.7,0.2-2.1-0.4-2.9
	c-3.1-0.6-6.1,0-9.1,0c-1.4,0.2-3.2,0.2-4.6-0.4c-0.2-1.9-0.9-4,0-5.9c-0.4-0.5,0-1.1-0.2-1.6c-0.5-0.4-1.1-0.2-1.5,0.2
	c-2.5,2.5-4.8,5-7.8,6.4c-0.4,0.4-0.7,0.9-1.1,1.1c-0.4,0.7-0.9,1.7-0.2,2.6c0.5,1.2,2.1,0.7,3.2,1.4c0,1.1,0.6,2.1,0.8,3.4
	c-0.2,0.5-0.2,0.9,0.2,1.2c-1,2.1-0.2,4.8-0.6,7c-0.7,2.1-0.4,4.5,0.1,6.6c-0.5,1.2,0.1,2.8-0.3,4.2c0.1,1.2,0.3,2.6,0,3.9
	c0,1.1,0,2.6,0.4,3.3c0.2,1.2,0.5,1.5,1.4,2.4c0.7,0.5,1.6,0.5,2.1,1.3c1.4,0.7,3.1,2.6,4.7,1.1c1.2-0.5,1.9,0.9,3,0.7
	c2.2-0.7,4.3-0.8,6.2-1.9C304.4,85.4,306.1,84.8,306.5,83.2 M77.3,81.7c0.2-1.4,0.2-2.6,0-3.9c-0.6-0.9,0.5-1.9-0.3-2.7
	c0.6-0.9-0.3-1.6,0.3-2.6c-0.8-1.6-0.3-3.4-0.6-5.2c-0.5-1.1,0-2.3-0.4-3.6c-0.2-0.5,0.2-1.4-0.2-1.9c0.5-0.9,1.5-1.8,1.3-3.1
	c-0.6-0.5-0.4-1.4-1-1.9c0.2-0.9-0.4-1.8-0.2-2.8c-1.1-0.5-0.4-2-1.8-2.4c0-1.4-1.8-1.2-2.3-2.5c-0.9-0.4-1.8-0.4-2.7-0.7
	c-2.1,0-4.5-0.7-6.4,0.2c-2.3,0-4,1.8-6.3,2.1c-1.8,0.7-3,2.6-5,2.9c-0.7-0.4,0-1.7-0.5-2c0.4-0.5,0.2-1.4,0.2-2.1
	c-1.4-2.1-3.7,0.2-5.8,0.3c-1.1,1.1-2.8,1.1-4.5,1.9c-1.4,0-1.8,0.9-1.6,2.2c1.3,1.1,3.4,0.8,4.6,1.5c0.9,0.9,0.2,2.6,0.9,3.5
	c0.2,0.4,0.3,0.6,0.3,1c0,1-0.5,1.9-0.3,2.8c-0.4,0.9-0.6,2.3-0.6,3c0,0.3,0.1,0.7,0.1,1.1c0.9,1.2,0.2,2.6,0.7,3.9
	c-0.5,1.1,0.5,2,0.2,3.3c-0.4,0.6-0.5,1.3-0.5,2c0,1.1,0.2,2.1,0,3.2c-0.5,0.9-0.2,2.1-0.7,3c-1.4,1.3-3.3,1.3-5,1.8
	c-0.7,0.3-0.9,1.9-0.9,2.1c0.6,0.4,1,1.4,1.7,1.4c0.4,0,2.6-0.8,5.1-0.8c1,0,1.8,0.1,2.7,0.3c3.3-0.7,6.4,0.5,9.6,0.2
	c0.7-0.5,2-0.9,1.6-1.8c-0.5-0.5-0.2-1.2-0.9-1.2c-2.3-0.5-5.5,0.2-7.1-2c0-1,0.3-6.4,0.3-7c0.5-0.9,0-1.8,0.4-2.8
	c-0.9-1.4,0-2.7,0-3.9c0-1,0.1-1.7,0.1-2.4c0-0.7-0.1-1.3-0.3-2c-0.4-1.8-0.2-3.5-0.4-5.5c0.4-1.4,2.1-1.6,3.1-2.6
	c2.5-1.1,4.8-2.5,7.5-3.3c3.2-1.2,5.5,1.1,7.8,2.9c0.2,0.2,0.2,0.5,0.2,0.7c0.9,1.1,0,2.5,0.2,3.8c0.7,0.5-0.3,1.6,0.5,2.1
	c0.5,2.1,0,4.3-0.2,6.4c0.7,0.5-0.5,1.8,0.5,2.4c-0.3,2.9-0.2,4.7-0.4,7.4c0.4,1.9-0.4,4-1.1,5c-1.1,0.6-2.6,0.4-3.4,0.7
	c-1.1,0.4-2,0.3-2.5,1.3c-0.3,0.8,0.2,1.4,0.4,1.9c0.4,0.5,0.7,0.5,1.4,0.5c0.9-1,2.7-0.2,4-1.1c3.6,0,7.1,0.9,10.6,0.4
	c1.2,0.2,2.7,0.4,3.5,0.4s1.5-0.9,1.5-1.9c0-2.1-1.7-2.2-4-2.2c-0.7,0-1.5,0-2.3-0.2C77.7,83,78,81.8,77.3,81.7 M104,51.9
	c1.8,0.5,3.3-0.6,4.8,1.1c1.2,0.4,2.5,1.1,3.1,2c0.9,1.7,0.3,0.9,1.1,2.5c0.5,1.1,0.9,1.7,1.7,2c1.4-0.3,2-1.4,1.8-3.8
	c0.2-2.4,0.3-4.1-0.3-4.7c-1.2-1.1-2.5-1.4-4.1-2.2c-0.9-0.5-2.4-0.6-3.4-0.6c-1.1,0-2.2,0.4-3.1,0c-2.5,0.4-5.2,0.5-7.1,1.7
	c-0.2,1-1.2,1-1.8,1.7c-0.9,0.7-1.4,1.7-2.2,2.6c-0.2,1.6-1.4,2.8-1.4,4.1c0,0.3,0.1,0.6,0.2,1.1c-0.5,1.1,0.7,1.8,0.4,3.1
	c0.9,0.5,0,1.8,1.2,2.1c0,1.1,1.1,0.7,1.3,1.8c0.7,0.9,2.2,0.5,3,2.2c1.5,1.2,3.3,1.4,4.8,1.9c0.7,1.8,2.1,1.8,3.4,2.7
	c0.4,1.1,1.9,1.1,1.9,2.3c1.2,0.2,1,1.6,1.8,2.4c0,0.5,0.2,1.4,0.2,1.8c0,0.4-0.1,1.1-0.3,1.6c-0.4,0.7-1.2,2.1-2.1,2.3
	c-1.4,1.5-3.2,1.4-4.9,1.9c-1.9,0-4.4-0.6-5.5-2.6C97,82.6,97.4,81,96,80.7c0-1.1-1.4-1.1-1.1-1.9c-0.8-1.8-1.2-3-2.9-3
	c-0.9,0-0.7,1.2-0.9,1.8c0.2,1.7,0.1,3,0.3,4.4c0.2,1.2-0.3,2.5,1.1,2.8c0.3,1.2,1.8,0.5,2.2,1.3c1,0.9,2,1.1,3.1,1.8
	c2.6,1,5.2,0.1,7.5,0.3c1.2-1.1,2.6-0.2,3.9-1.2c2.1-1.1,4.5-2.1,5.7-4.3c2.3-0.7,1.4-3.2,2.6-4.6c0.1-0.2,0.1-0.3,0.1-0.5
	c0-1.1-0.6-1.9-0.4-2.7c-1.1-0.7-0.5-1.9-1.4-2.5c0.4-1.5-1.6-1.5-1.6-2.7c-1.1-0.2-1.3-1.1-1.9-1.8c-1.4-0.5-2.5-1.6-3.9-1.9
	c-1.1-1.5-2.9-1.3-4.1-2.1c-0.7-0.5-1.1-1.2-1.9-1.4c-0.7-1.2-2.4-1.1-2.9-1.9c-0.2-1.1-1.8-1.4-1-2.9c-0.3-0.3-0.7-0.5-0.7-0.7
	c0-0.6,0.8-1.1,0.5-2.1c0.5,0,0.2-0.1,0.4-0.4c1.1-1.1,2.6-2.4,4.9-2.4L104,51.9 M151.3,83.2c0.2-0.5-0.4-1.3-0.9-1.5
	c-1.2-0.2-1.9,0.5-2.9,1.4c-1.8,1-3.8,1.2-5.6,0.9c-1.5-0.3-3-0.9-4.1-1.9c0-0.5-0.2-1.1-0.5-1.4c-0.2-2.4-0.7-4.7-0.5-7
	c0.5-0.5,0.2-1.4,0.3-2.3c-0.9-0.5,0-1.6-0.7-2.3c-0.2-1.7,0.4-3.1,0.2-4.8c-0.2-0.7,0.5-1.2,0-1.8c0-2.2,0-4.8,0.5-7.2
	c0.5-0.4,0.5-0.9,0.5-1.4c0.2-0.5,0.7-0.5,1-0.7c1.1,0.5,2.5,0.2,3.8,0.4c1.9,0,3.9-1.8,5.5-0.2c1.2,0.5,2.8,0.2,3.3-1.1
	c0.7-0.7,0.2-2.1-0.4-2.9c-3.1-0.6-6.1,0-9.1,0c-1.4,0.2-3.2,0.2-4.6-0.4c-0.2-1.9-0.9-4,0-5.9c-0.4-0.5,0-1.1-0.2-1.6
	c-0.5-0.4-1.1-0.2-1.5,0.2c-2.5,2.5-4.8,5-7.8,6.4c-0.3,0.4-0.7,0.9-1.1,1.1c-0.4,0.7-0.9,1.7-0.2,2.6c0.5,1.2,2.1,0.7,3.2,1.4
	c0,1.1,0.6,2.1,0.8,3.4c-0.2,0.5-0.2,0.9,0.2,1.2c-1,2.1-0.2,4.8-0.6,7c-0.7,2.1-0.4,4.5,0.1,6.6c-0.5,1.2,0.1,2.8-0.3,4.2
	c0.1,1.2,0.4,2.6,0,3.9c0,1.1,0,2.6,0.4,3.3c0.2,1.2,0.5,1.5,1.4,2.4c0.7,0.5,1.6,0.5,2.1,1.3c1.4,0.7,3.1,2.6,4.7,1.1
	c1.2-0.5,1.9,0.9,3,0.7c2.2-0.7,4.3-0.8,6.2-1.9C149.2,85.4,151,84.8,151.3,83.2 M173.8,37.1c-0.4-0.7,0.2-1.8-0.8-2.3
	c-0.1-0.9-1.3-1-1.7-1.7c-1.4-1.1-3.3-0.6-5.1-0.8c-1.9,1.4-2.4,3.4-2.8,5.2c-0.3,1.7,1.3,1.7,1.8,2.9c1.4,0.6,2.4,2.2,4.1,1.7
	c0.9,0,1.5-0.7,2-1.3C173.1,40.6,173.1,38.5,173.8,37.1 M181.3,85.3c-0.4-2-3.3-1.6-7-2.1c-0.2-0.9-1.7-1.3-1.1-2.4
	c-0.6-1.8,0.9-3.4,0.5-4.5c-0.4-1.3,0.2-2.6-0.6-3.6c0.2-1.1-0.2-1.8,0-2.8c-0.9-0.5-0.4-1.7-0.9-2.4c0.5-1.2-0.2-2.8,0.5-4.1
	c0.2-1.5,0.4-2.9,0.4-4.3c-0.4-1.2,0.2-2.5-0.4-3.6c0.4-1.9,0.5-3.7,0-5.5c-0.9-2.1-3.5-1.6-4.8-0.5c-1.8,2.6-5.5,0.9-7.6,3.1
	c-0.5,0.9-0.5,1.9,0.5,2.5c1.5-0.7,2.7,0.8,3.8,1.3c0.4,0.8,0.9,1.6,0.4,2.6c1.4,1.1,1.1,3,0.7,4.7c-0.2,2.8,0.9,5.9,0.5,8.7
	c0.2,1.6,0.2,3.3,0.4,4.7c-1.1,1.8-0.5,3.9-1.6,5.7c-0.9,0.5-1.8,0.5-2.6,0.7c-1.3,1.2-3.4,0.2-4.3,1.6c-0.4,1.1,0.5,1.5,0.9,2.3
	c1.6,0.9,3.3-0.4,5-0.6c1.4,0.6,3.4,0,5.2,0.2c1.6,0,3.4-1.1,4.8,0c2.3,0.3,4.6,1,6.1,0.4C180.9,87,181.6,86.2,181.3,85.3
	 M226.2,81.7c0.2-1.4,0.2-2.6,0-3.9c-0.6-0.9,0.5-1.9-0.3-2.7c0.6-0.9-0.3-1.6,0.3-2.6c-0.8-1.6-0.3-3.4-0.6-5.2
	c-0.5-1.1,0-2.3-0.4-3.6c-0.2-0.5,0.2-1.4-0.2-1.9c0.5-0.9,1.5-1.8,1.3-3.1c-0.6-0.5-0.4-1.4-1-1.9c0.2-0.9-0.4-1.8-0.2-2.8
	c-1.1-0.5-0.4-2-1.8-2.4c0-1.4-1.8-1.2-2.3-2.5c-0.9-0.4-1.9-0.4-2.7-0.7c-2.1,0-4.5-0.7-6.4,0.2c-2.3,0-4,1.8-6.2,2.1
	c-1.8,0.7-3,2.6-5,2.9c-0.7-0.4,0-1.7-0.5-2c0.4-0.5,0.2-1.4,0.2-2.1c-1.4-2.1-3.7,0.2-5.8,0.3c-1.1,1.1-2.8,1.1-4.5,1.9
	c-1.4,0-1.8,0.9-1.6,2.2c1.3,1.1,3.3,0.8,4.6,1.5c0.9,0.9,0.2,2.6,0.9,3.5c0.2,0.4,0.3,0.6,0.3,1c0,1-0.5,1.9-0.3,2.8
	c-0.4,0.9-0.6,2.3-0.6,3c0,0.3,0.1,0.7,0.1,1.1c0.9,1.2,0.2,2.6,0.7,3.9c-0.5,1.1,0.5,2,0.2,3.3c-0.4,0.6-0.5,1.3-0.5,2
	c0,1.1,0.2,2.1,0,3.2c-0.5,0.9-0.2,2.1-0.7,3c-1.4,1.3-3.3,1.3-5,1.8c-0.7,0.3-0.9,1.9-0.9,2.1c0.6,0.4,1,1.4,1.7,1.4
	c0.4,0,2.6-0.8,5.1-0.8c1,0,1.8,0.1,2.7,0.3c3.3-0.7,6.4,0.5,9.6,0.2c0.7-0.5,2-0.9,1.6-1.8c-0.5-0.5-0.2-1.2-0.9-1.2
	c-2.3-0.5-5.5,0.2-7.1-2c0-1,0.4-6.4,0.4-7c0.5-0.9,0-1.8,0.4-2.8c-0.9-1.4,0-2.7,0-3.9c0-1,0.1-1.7,0.1-2.4c0-0.7-0.1-1.3-0.3-2
	c-0.4-1.8-0.2-3.5-0.4-5.5c0.4-1.4,2.1-1.6,3.1-2.6c2.5-1.1,4.8-2.5,7.5-3.3c3.2-1.2,5.5,1.1,7.8,2.9c0.2,0.2,0.2,0.5,0.2,0.7
	c0.9,1.1,0,2.5,0.2,3.8c0.7,0.5-0.4,1.6,0.5,2.1c0.5,2.1,0,4.3-0.2,6.4c0.7,0.5-0.5,1.8,0.5,2.4c-0.3,2.9-0.2,4.7-0.4,7.4
	c0.4,1.9-0.3,4-1.1,5c-1.1,0.6-2.6,0.4-3.4,0.7c-1.1,0.4-2,0.3-2.5,1.3c-0.4,0.8,0.2,1.4,0.3,1.9c0.4,0.5,0.7,0.5,1.4,0.5
	c0.9-1,2.7-0.2,4-1.1c3.6,0,7.1,0.9,10.6,0.4c1.2,0.2,2.7,0.4,3.5,0.4c0.8,0,1.5-0.9,1.5-1.9c0-2.1-1.7-2.2-4-2.2
	c-0.7,0-1.5,0-2.3-0.2C226.6,83,226.9,81.8,226.2,81.7 M273.1,76.3c-0.4-0.5-0.9-0.4-1.2-0.9c-1.7-0.7-2,1.4-3.4,2
	c-1.1,1.1-1.9,2.5-3.3,3.2c-1.4,1.3-3.3,2-5.2,2c-0.6,0-1.2,0-1.8-0.1c-1.6,0-2.8-0.9-4.2-1.6c-1.7,0-1.7-1.8-3.1-2.1
	c0.2-1.2-1.6-1.1-1.4-2.4c-1.6-0.4-0.4-2.1-1.8-2.6c0.2-1.1-1.1-1.6-0.2-2.6c-0.8-0.9-0.4-2.1-0.2-3c-0.8-0.9,0.5-1.8,0-2.6
	c0.7-0.6-0.4-1.3,0.2-2c-0.2-1,0.2-1.9-0.2-2.8c0.5-1.1-0.4-2.4,1.1-2.9c-0.4-0.5,0.3-0.7,0.3-1.2c0.5-0.4,0.7-1.1,1.2-1.6
	c0-1.2,1.6-0.9,1.9-2c1.7-0.5,3.6-0.4,4.7-1.9c2.6-0.5,4,1.8,5.5,3.3c0.4,1.2,1.4,1.6,2.3,2.3c0.6,0.9,1.7,1.2,2.4,2.1
	c1,0.5,2.1-0.4,3.2-0.7c0.2-0.7,0.5-1.4,1.1-1.9c-0.4-0.5,0.5-1.6-0.6-1.9c0.8-1.5-0.9-1.8-1.4-2.9c-2.1-0.5-3.7-2.3-5.9-3
	c-1.9,1.4-4.3-0.2-6.4,0c-2.1,1.2-5,0.7-6.8,2.5c0.2,1.2-1.4,0.9-1.8,1.8c-1.3,1.5-3.1,1.9-3.8,3.4c-0.4,0.5-1.1,1.2-1.1,1.9
	c-0.9,0.5-0.5,1.6-1.4,1.8c0.2,0.7-1,0.9-0.4,1.6c-0.8,0.7-0.4,1.8-1.1,2.5c0.2,0.7,0,1.4-0.5,2.2c-0.7,0.7-0.4,1.8-0.4,2.6
	c0.9,0.9,0,1.9,0.2,2.9c-0.7,0.7-0.2,1.8-0.4,2.6c-0.5,1.2,1.1,1.6,0.5,3c0.9,0.6,0.2,1.9,1.5,2.4c-0.2,1.2,1.4,1.2,1.4,2.5
	c1.1,1.2,2.6,2,3.7,3.4c2.2,0.2,3.6,2.1,5.9,1.8c0.4,0.3,1.1,0.5,1.7,0.3c0.3,0.4,0.9,0.5,1.2,0.5c0.5,0,1,0.2,1.4,0.2
	c1.3,0,3.4-1.4,5-1.8c1.8-0.4,3.8-1.1,5-2.6c0.5-0.2,1.2-0.2,1.6-1c0.2-1.8,1.9-2.8,3.1-4.2C272.3,78.3,272.8,77.4,273.1,76.3
	 M306.5,83.2c0.2-0.5-0.4-1.3-0.9-1.5c-1.2-0.2-1.9,0.5-2.9,1.4c-1.8,1-3.8,1.2-5.6,0.9c-1.5-0.3-3-0.9-4.1-1.9
	c0-0.5-0.2-1.1-0.5-1.4c-0.2-2.4-0.7-4.7-0.5-7c0.5-0.5,0.2-1.4,0.4-2.3c-0.9-0.5,0-1.6-0.7-2.3c-0.2-1.7,0.4-3.1,0.2-4.8
	c-0.2-0.7,0.5-1.2,0-1.8c0-2.2,0-4.8,0.5-7.2c0.5-0.4,0.5-0.9,0.5-1.4c0.2-0.5,0.7-0.5,1.1-0.7c1.1,0.5,2.5,0.2,3.8,0.4
	c1.9,0,3.9-1.8,5.5-0.2c1.2,0.5,2.8,0.2,3.3-1.1c0.7-0.7,0.2-2.1-0.4-2.9c-3.1-0.6-6.1,0-9.1,0c-1.4,0.2-3.2,0.2-4.6-0.4
	c-0.2-1.9-0.9-4,0-5.9c-0.4-0.5,0-1.1-0.2-1.6c-0.5-0.4-1.1-0.2-1.5,0.2c-2.5,2.5-4.8,5-7.8,6.4c-0.4,0.4-0.7,0.9-1.1,1.1
	c-0.4,0.7-0.9,1.7-0.2,2.6c0.5,1.2,2.1,0.7,3.2,1.4c0,1.1,0.6,2.1,0.8,3.4c-0.2,0.5-0.2,0.9,0.2,1.2c-1,2.1-0.2,4.8-0.6,7
	c-0.7,2.1-0.4,4.5,0.1,6.6c-0.5,1.2,0.1,2.8-0.3,4.2c0.1,1.2,0.3,2.6,0,3.9c0,1.1,0,2.6,0.4,3.3c0.2,1.2,0.5,1.5,1.4,2.4
	c0.7,0.5,1.6,0.5,2.1,1.3c1.4,0.7,3.1,2.6,4.7,1.1c1.2-0.5,1.9,0.9,3,0.7c2.2-0.7,4.3-0.8,6.2-1.9C304.4,85.4,306.1,84.8,306.5,83.2
	"/>
<path fill="#FFFFFF" d="M312.2,55.1c-1.7,0-3-1.4-3-3c0-1.7,1.3-3.1,3.1-3.1s3,1.4,3,3C315.2,53.7,313.9,55.1,312.2,55.1
	 M312.2,49.3c-1.5,0-2.7,1.2-2.7,2.7c0,1.5,1.2,2.7,2.7,2.7c1.5,0,2.7-1.2,2.7-2.7C314.9,50.5,313.7,49.3,312.2,49.3 M313,52.4
	l0.8,1.2h-0.8l-0.7-1h-0.6v1h-0.7v-3.2h1.4c0.8,0,1.3,0.4,1.3,1.1C313.6,51.9,313.4,52.3,313,52.4 M312.4,51h-0.7v0.9h0.7
	c0.4,0,0.6-0.2,0.6-0.5C312.9,51.1,312.7,51,312.4,51"/>
<path fill="#FFFFFF" d="M101.3,18c-0.6,0-1.1,0.5-1.1,1.1c0,0.6,0.5,1.1,1.1,1.1c0.6,0,1.1-0.5,1.1-1.1
	C102.4,18.5,101.9,18,101.3,18"/>
<path fill="#FFFFFF" d="M116.3,30.2c0.6,0,1.2-0.1,1.5-0.2l0,0c-0.1-0.6-0.2-0.6-0.5-0.6c-0.1,0-0.2,0-0.2,0
	c-0.7-0.2-1.1-0.5-1.1-1.6v-5.3h1.8v-1.1H116v-2h-0.2c-0.5,0.6-1.7,2-2.8,2.8v0.3h1v5.5C114,29.4,115.1,30.2,116.3,30.2"/>
<path fill="#FFFFFF" d="M125.7,7.5c0,0,1-0.6,1.3-1.6c0.1-0.2,0.1-0.4,0.1-0.6c0-0.7-0.5-1.2-1.1-1.2c-0.6,0-1.1,0.5-1.1,1.1
	c0,0.6,0.3,1,0.9,1.1l0,0l0,0c0,0.2-0.2,0.7-0.8,1.3l0,0l0.1,0C125.3,7.7,125.5,7.6,125.7,7.5"/>
<path fill="#FFFFFF" d="M97.6,16.4c0.6,0,1.2-0.1,1.5-0.2l0,0c-0.1-0.6-0.2-0.6-0.5-0.6c-0.1,0-0.1,0-0.2,0
	c-0.7-0.2-1.1-0.5-1.1-1.6V8.5h1.8V7.5h-1.7v-2h-0.2c-0.5,0.6-1.7,2-2.8,2.8v0.3h1V14C95.3,15.6,96.5,16.4,97.6,16.4"/>
<path fill="#FFFFFF" d="M84.6,18.3c-1,0-1.6,0.5-2.2,1.9l-2.7,6.1l-2.6-5.8c-0.8-1.8-1.6-2.2-2.7-2.2h-0.6L79,30h0.8L85,18.3H84.6z"
	/>
<path fill="#FFFFFF" d="M102.3,21.3h-2.1v7.4c0,1.3,0.5,1.5,1.6,1.5h0.4v-6.3v-1.3V21.3z"/>
<path fill="#FFFFFF" d="M88.3,21.1c-1.6,0-2.6,0.3-2.9,0.4l0,0v1.3c0.8-0.3,1.4-0.4,1.9-0.5c0.1,0,0.2,0,0.3,0c0.1,0,0.2,0,0.2,0
	c0,0,0.1,0,0.1,0c0,0,0,0,0.1,0h0.1h0c1.1,0,1.7,0.4,1.7,1.2c0,1-1,1.2-2.2,1.4c-0.2,0-0.5,0.1-0.8,0.1c-1.9,0.3-2.8,1.2-2.8,2.7
	c0,1.6,1.6,2.5,3.2,2.5c1.5,0,2.3-0.6,2.8-1.1L90,29l0,0.1c0.2,0.5,0.7,1.1,1.8,1.1v-6.1C91.9,21.6,89.9,21.1,88.3,21.1 M89.9,27
	c0,1-1,1.9-2.1,1.9c-0.7,0-1.5-0.5-1.5-1.5c0-1,0.6-1.3,1.4-1.5c0.3-0.1,0.6-0.2,0.9-0.2c0.4-0.1,0.8-0.2,1.2-0.4l0.1,0L89.9,27
	L89.9,27z"/>
<path fill="#FFFFFF" d="M89.7,7.3c-1.6,0-2.6,0.3-2.9,0.4l0,0v1.3c0.8-0.3,1.4-0.4,1.9-0.5c0.1,0,0.2,0,0.3,0c0.1,0,0.2,0,0.2,0
	c0,0,0.1,0,0.1,0c0,0,0,0,0.1,0c0,0,0,0,0.1,0v0c1.1,0,1.7,0.5,1.7,1.2c0,1-1,1.2-2.2,1.4c-0.3,0-0.5,0.1-0.8,0.1
	c-1.9,0.3-2.8,1.2-2.8,2.7c0,1.6,1.6,2.5,3.2,2.5c1.5,0,2.3-0.6,2.8-1.1l0.1-0.1l0,0.1c0.2,0.5,0.7,1.1,1.8,1.1v-6.1
	C93.2,7.8,91.3,7.3,89.7,7.3 M91.2,13.2c0,1-1,1.9-2.1,1.9c-0.7,0-1.5-0.5-1.5-1.5c0-1,0.6-1.3,1.4-1.5c0.3-0.1,0.6-0.2,0.9-0.2
	c0.4-0.1,0.8-0.2,1.2-0.4l0.1,0V13.2L91.2,13.2z"/>
<path fill="#FFFFFF" d="M127.3,21.3c-0.8,0-1.4,0.4-1.8,1.4l-1.9,4.4l-1.9-4c-0.6-1.2-1.2-1.8-2-1.8h-1.1l3.9,8.2
	c-0.1,0.5-1.2,2.5-2.1,2.9c-0.1,0.1-0.3,0.1-0.5,0.1l0,0l0,0h-0.1c-0.1,0-0.1,0-0.2,0c-0.5,0.1-0.9,0.5-1.1,1.2l0,0.3
	c1.2,0.2,2.3-0.1,3.1-0.8c0.8-0.6,1.3-1.6,1.9-2.9l4.2-9L127.3,21.3L127.3,21.3z"/>
<path fill="#FFFFFF" d="M82.4,5.9v6.2l-6.1-7.6h-2.2v11.7l1.5,0V7l7.5,9.1H84l0-11.7h-0.3C83.1,4.5,82.4,4.5,82.4,5.9"/>
<path fill="#FFFFFF" d="M106.8,7.5V13c0,1.2-0.9,2-2,2c-1.2,0-1.9-0.8-1.9-2V7.5h-2V13c0,2.2,1.1,3.4,3,3.4c0.9,0,2.1-0.2,2.9-1.2
	l0-0.1l0,0.1c0.2,0.7,0.9,1.1,2,1.1V7.5H106.8z"/>
<path fill="#FFFFFF" d="M111.6,28.4c-0.9,0.3-1.8,0.5-2.5,0.5c-1.5,0-2.9-1-3-3.2v0h6.2c0.1-1.3-0.3-2.5-1.1-3.4
	c-0.7-0.8-1.7-1.2-2.9-1.2c-2.5,0-4.4,1.9-4.4,4.5c0,2.6,2,4.6,4.7,4.6c1.7,0,2.4-0.4,2.8-0.6c0.1,0,0.1-0.1,0.2-0.1V28.4z
	 M106.1,24.5c0.1-1.5,0.9-2.4,2.1-2.4c0.5,0,0.9,0.2,1.3,0.5c0.4,0.4,0.6,1.1,0.6,1.9l0,0L106.1,24.5L106.1,24.5z"/>
<path fill="#FFFFFF" d="M124.1,14.6c-0.9,0.3-1.8,0.5-2.5,0.5c-1.5,0-3-1-3-3.2l0-0.1h6.2c0.1-1.3-0.3-2.5-1.1-3.4
	c-0.7-0.8-1.8-1.2-2.9-1.2c-2.6,0-4.4,1.9-4.4,4.5c0,2.6,2,4.6,4.7,4.6c1.7,0,2.4-0.4,2.8-0.6c0.1,0,0.1-0.1,0.2-0.1V14.6
	L124.1,14.6z M118.7,10.7c0.1-1.5,0.9-2.4,2.1-2.4c0.5,0,0.9,0.2,1.3,0.5c0.4,0.4,0.6,1.1,0.6,1.9l0,0L118.7,10.7L118.7,10.7z"/>
<path fill="#FFFFFF" d="M131.3,10.9c-0.2-0.1-0.3-0.1-0.4-0.2c-0.8-0.3-1.6-0.6-1.6-1.4c0-0.9,1.1-1,1.6-1c0.8,0,1.8,0.3,2.2,0.6
	l0,0v0V7.7c-0.5-0.2-1.4-0.4-2.5-0.4c-2.2,0-3.6,1-3.6,2.7c0,1.3,1.1,1.9,2.3,2.3c0.2,0.1,0.4,0.1,0.6,0.2c1.1,0.4,2.1,0.7,2,1.5
	c-0.1,0.8-0.8,1.2-1.9,1.2c-1,0-2.3-0.2-3-0.7v1.3c0.4,0.2,1.9,0.6,3.1,0.6c1.9,0,3.9-0.9,4-2.7C134,11.9,132.7,11.4,131.3,10.9"/>
<path fill="#FFFFFF" d="M97.8,21.2L97.8,21.2c-1.1,0-2.1,0.7-2.5,1.4c0-1.1-1.2-1.3-1.8-1.3h-0.2v8.9h0.7c0.7,0,1.3-0.2,1.3-1.3V25
	c0-1.3,0.7-2.4,1.7-2.2c0,0,0,0,0.1,0l0,0c0,0,0.1,0,0.1,0v0c1,0.2,1.6-0.5,1.7-0.7c0.1-0.2,0.2-0.5,0.2-0.5
	C99,21.4,98.3,21.2,97.8,21.2"/>
<path fill="#FFFFFF" d="M115,7.3L115,7.3c-1.1,0-2.1,0.7-2.5,1.4c0-1.1-1.2-1.3-1.8-1.3h-0.2v8.9h0.7c0.7,0,1.3-0.2,1.3-1.3v-3.9
	c0-1.3,0.7-2.4,1.7-2.2c0,0,0.1,0,0.1,0v0c0,0,0.1,0,0.1,0v0c1,0.2,1.6-0.5,1.7-0.7c0.1-0.2,0.2-0.5,0.2-0.5
	C116.2,7.6,115.5,7.4,115,7.3"/>
<path fill="#FFFFFF" d="M58.9,9.9c-0.1,0.2-0.2,0.4-0.2,0.5v0C58.8,10.2,58.9,10,58.9,9.9L58.9,9.9"/>
<polygon fill="#FFFFFF" points="59.7,12.5 59.7,12.5 59.6,12.5 "/>
<polygon fill="#FFFFFF" points="63.6,5.3 63.5,5.3 63.5,5.3 63.6,5.4 63.6,5.4 63.6,5.4 "/>
<path fill="#FFFFFF" d="M39.1,21.9L39.1,21.9c0,0.2,0.1,0.4,0.2,0.5c0.1,0.4,0.3,0.9,0.5,1.3c0.3,0.8,1,2,1.6,2.8l0,0l0,0
	c0.2,0.2,0.4,0.4,0.6,0.7c0,0.1,0.1,0.1,0.2,0.2l0,0c0.1,0.1,0.2,0.2,0.4,0.3c0.1,0.1,0.2,0.1,0.3,0.2l0,0l0.1,0.2
	c0.1,0,0.1,0.1,0.1,0.1l0.1,0c0,0,0,0,0.1,0l0.1,0l0,0c0.1,0.2,0.4,0.4,0.6,0.5c0.1,0,0.1-0.1,0.2-0.1c-0.1-0.1-0.1-0.1-0.2-0.2
	c0,0-0.4-0.3-0.5-0.5c0,0-0.1,0-0.3-0.2l0,0l0.1,0c-0.1-0.1-0.2-0.2-0.3-0.3c-0.1-0.1-0.2-0.2-0.3-0.3l0,0v0l0-0.1
	c0,0-0.1-0.1-0.1-0.1l0-0.1c-0.1-0.1-0.1-0.2-0.1-0.2l0.1,0c0.8,0.8,1.6,1.6,2,1.9l0.1-0.1c0.1-0.1,0.3-0.2,0.5-0.3l0,0l0,0l0,0
	l0.1-0.1c0,0,0.1-0.1,0.1-0.1c0,0,0.1-0.1,0.1-0.1c0,0,0.1,0,0.1-0.1l0,0l0.1-0.1l0.1-0.1l0.2,0.3l-0.2,0c0,0-0.1,0-0.1,0l-0.1,0
	c0,0-0.1,0.1-0.1,0.1c-0.1,0.1-0.2,0.1-0.2,0.1l0,0v0l0,0c0,0,0.1,0,0.1,0.1l0.2,0.1l-0.4,0l0,0l-0.1,0l0,0c-0.1,0-0.2,0.1-0.3,0.2
	l-0.1,0c0.1,0.1,0.2,0.1,0.2,0.1c0.3,0.2,0.6,0.3,0.9,0.1l0,0c0.2-0.1,0.3-0.2,0.4-0.4c0,0,0.1-0.1,0.1-0.2l0,0l-0.1,0
	c-0.1,0-0.1,0-0.1,0l-0.1,0l0,0l0,0c0,0-0.1,0.1-0.1,0.1l0,0c0,0.1-0.1,0.1-0.2,0.2c-0.1,0.1-0.2,0.1-0.3,0.1l-0.1,0l0.1-0.1
	c0,0,0.1-0.1,0.1-0.1c0.1-0.1,0.1-0.2,0.2-0.3l0.1,0l0.1,0h0l0,0.1l-0.1,0l0,0l0.1,0l0,0l0,0l0,0l0,0v0c0,0,0.1-0.1,0.1-0.1
	c0.1,0,0.1,0,0.1,0.1l0,0l0,0l0,0l0,0h0l0.1-0.3l0,0l0,0l2.3-4.1c0.3-0.5,0.2-1.3-0.3-1.7c0,0-0.2-0.2-0.5-0.6l0,0l-0.1-0.1l0,0l0,0
	l-0.1-0.1c-0.2-0.2-0.4-0.5-0.5-0.7c-0.1-0.2-0.2-0.4-0.3-0.7l0.1,0l0.1,0.1c0-0.1-0.1-0.1-0.1-0.2c-0.1-0.2-0.1-0.3-0.1-0.5l0-0.1
	c-0.1-0.2-0.1-0.2-0.1-0.3c0-0.1,0-0.1-0.2-0.3l0,0l0.1,0c-0.1-0.1-0.1-0.2-0.2-0.2c-0.1-0.1-0.1-0.1-0.2-0.2l-0.1,0l0,0
	c-0.1-0.1-0.2-0.2-0.3-0.2l-0.1-0.1l0,0.1l-0.1-0.1c0,0-0.1,0-0.2,0L45,18.1l0-0.1h0c-0.2,0-0.3,0-0.3,0l0,0c-0.1,0-0.1,0-0.2,0l0,0
	l0-0.1c-0.4,0-0.5,0-0.6,0l-0.1-0.1l0.1,0c-0.3,0-0.3,0.1-0.3,0.1c0,0.1-0.1,0.1-0.5,0.1l0,0l0,0l-0.2,0l-0.1,0
	c-0.1,0.1-0.2,0.3-0.2,0.3v0l0,0l-0.1,0l-0.1,0c-0.1,0.1-0.2,0.1-0.3,0.1l-0.1,0l0-0.1l-0.1,0l-0.1,0c-0.1,0-0.2,0-0.3-0.1l-0.1-0.1
	l0.6,0.1l0.1-0.1c0-0.1,0.1-0.1,0.1-0.2c-0.2,0-0.5,0-0.8,0l-0.1,0l0,0l0,0l0,0l-0.1-0.1c-0.3,0-0.4,0-0.6,0c-0.1,0-0.2,0-0.3,0
	c-0.1,0-0.3-0.1-0.6,0l0.1,0.1l-0.1,0c-0.2,0-0.7,0.2-0.9,0.7c-0.1,0.3-0.1,0.6-0.1,0.9c0,0.1,0,0.1,0,0.2l0,0l0,0
	c0.1,0.1,0.1,0.2,0.1,0.4l0.1,0l0.1-0.1l0.1,0c0.1,0,0.1,0,0.1,0c0,0,0,0,0.1-0.1l0,0c0,0,0.1-0.1,0.1-0.1c0.1-0.1,0.2-0.1,0.3,0
	l0.1,0l-0.1,0.1c-0.1,0.1-0.2,0.1-0.2,0.2c-0.2,0.1-0.3,0.3-0.5,0.4v0.1v0.1l0,0l0,0l0,0c0,0.3,0.1,0.4,0.2,0.5
	C38.9,21.4,39,21.5,39.1,21.9L39.1,21.9 M44.4,27.9l-0.1-0.1l0.5-0.3l0.3,0l0,0.1L44.4,27.9z M46.8,24.3l0.1,0.2l-0.1,0.1
	c0,0,0,0,0,0.1l0,0.1l0,0.1l-0.2,0l-0.1-0.1L46.8,24.3z M46,23.9c0.1-0.1,0.2-0.2,0.3-0.2c0.1-0.1,0.2-0.1,0.3-0.2l0.1,0l0,0.1
	c0,0,0,0.1,0,0.2c0,0-0.1,0.1-0.1,0.1c0,0-0.1,0.1-0.1,0.1c0,0-0.1,0.1-0.1,0.1L46.2,24l-0.4,0L46,23.9z M45.7,23.8l0.1,0.1
	l-0.5,0.3L45.1,24L45.7,23.8z M41.4,25.9L41.4,25.9l-0.1,0l0,0c-0.1-0.1-0.1-0.2-0.1-0.2l0,0l0,0l0,0c0.1,0.1,0.1,0.1,0.2,0.2
	l0.1,0.1H41.4L41.4,25.9z M42.1,26.7L42.1,26.7c-0.1,0-0.2-0.1-0.2-0.2c0,0-0.1-0.1,0-0.1l0,0c0,0-0.1-0.1-0.2-0.2l0,0v0l0,0l0.1,0
	l0,0l0.1,0l0,0l0,0c0,0.1,0.1,0.1,0.1,0.1v0C42,26.4,42.1,26.5,42.1,26.7L42.1,26.7L42.1,26.7L42.1,26.7z M44.7,22.2L44.7,22.2
	L44.7,22.2c0.2-0.1,0.3-0.1,0.3-0.1l0,0l0.1,0.1L45,22.3c-0.1,0.1-0.2,0.1-0.2,0.1c0,0.1-0.1,0.1-0.1,0.2c0,0-0.1,0-0.1,0.1l-0.1,0
	l-0.1,0l-0.1,0.1l0-0.1c0-0.1,0-0.3,0.2-0.3C44.5,22.3,44.5,22.3,44.7,22.2L44.7,22.2L44.7,22.2z M44.2,22L44.2,22
	c0.1,0,0.1-0.1,0.2-0.1c0,0,0.1-0.1,0.1-0.1l0.1,0l0.1,0.2L44.6,22l-0.1,0c-0.1,0.1-0.2,0.1-0.2,0.1l0,0l-0.1,0.1l0,0l-0.1,0l0-0.1
	l0,0L44.2,22z M42.9,23.7c0.1-0.1,0.1-0.1,0.2-0.1c0.2-0.1,0.4-0.3,0.7-0.3l0,0l0,0.1l-2.3,1.5l0.3-0.7l0.1,0c0.3,0,0.5-0.2,0.8-0.4
	C42.7,23.8,42.8,23.7,42.9,23.7 M42.6,22.7c0.1-0.1,0.1-0.1,0.2-0.2c0.1,0,0.2-0.1,0.2-0.1l0.5-0.2l-0.1,0.2c0,0.1-0.1,0.2-0.2,0.2
	c0,0-0.1,0-0.1,0l-0.1,0l0,0l-0.4,0.2l0-0.1L42.6,22.7z M41.8,23.6c0,0,0.1,0,0.2-0.1c0.1,0,0.2-0.1,0.2-0.1c0.1,0,0.1,0,0.2,0
	l0,0.1l-0.6,0.4l-0.2-0.3L41.8,23.6z M40.9,24.8L40.9,24.8c0.2,0,0.3,0,0.3,0c0,0,0,0.1,0,0.2c0,0.1-0.1,0.1-0.2,0.2
	c-0.1,0-0.2,0.1-0.3,0.1l-0.1,0L40.9,24.8z M41.1,22.7L41,22.9c-0.1,0.2-0.3,0.3-0.4,0.4c-0.1,0.1-0.2,0.1-0.3,0.2l-0.1,0
	c0,0,0,0-0.1,0.1L40,23.6L40,23.5l0,0c0,0,0.1-0.1,0.1-0.1l0.1,0l0,0c0-0.1,0.1-0.1,0.1-0.2l0,0l-0.1-0.1L41.1,22.7z M41.4,20.2
	l-0.1,0.5l-0.1,0l0,0h-0.1h0L40.6,21l-0.1-0.1L41.4,20.2z M39.6,21.9L39.6,21.9L39.6,21.9c0.1,0.1,0.1,0.2,0.1,0.2l0,0
	c0.1,0,0.1-0.1,0.1-0.2c0-0.1,0.1-0.2,0.2-0.3l0.1,0h0c0.1,0,0.2,0,0.2,0.1l0.1,0c0.1,0,0.1,0,0.2,0l0,0l-0.3,0l0-0.1
	c0-0.1,0.1-0.2,0.2-0.2c0.1-0.1,0.1-0.1,0.2-0.1l0,0c0.1,0,0.1,0,0.2-0.1c0,0,0.1-0.1,0.1-0.1l0-0.1l0.5,0l0,0.1
	c-0.1,0.2-0.2,0.3-0.3,0.4l0,0c-0.1,0.1-0.2,0.3-0.2,0.4l0,0.2l-0.1-0.1c0,0,0,0-0.1,0c-0.1,0-0.1,0.1-0.3,0.1
	c-0.1,0-0.1,0.1-0.2,0.1c-0.2,0.1-0.3,0.2-0.5,0.3c-0.1,0-0.2,0.1-0.3,0l-0.1-0.1c0-0.1-0.1-0.2,0-0.3l0,0L39.6,21.9z M44,29L44,29
	L44,29c0-0.1,0-0.1,0.1-0.1l0,0c0.1,0.1,0.3,0.2,0.4,0.3c0.2,0.1,0.3,0.2,0.5,0.2c0.5,0.1,1-0.4,1.2-0.9l0.1,0l0,0l0,0l0,0l0,0
	c0.2-0.4,0.4-0.7,0.5-1c0.2-0.4,0.3-0.7,0.6-1.2c0.1,0,0.1-0.2,0.2-0.3c0.1-0.1,0.1-0.3,0.2-0.4l0,0v0c0.1-0.2,0.2-0.5,0.4-0.8
	c0.2-0.3,0.4-0.7,0.5-1.1c0,0.3-0.2,0.8-0.5,1.3c-0.2,0.4-0.5,0.9-0.7,1.3c-0.1,0.2-0.2,0.3-0.3,0.5l0,0c-0.2,0.4-0.5,0.9-0.7,1.3
	l-0.2,0.3c0,0.1-0.1,0.2-0.1,0.2c-0.1,0.2-0.2,0.4-0.5,0.7c-0.3,0.3-0.8,0.4-1.2,0.3l0,0l0,0C44.3,29.2,44.2,29.2,44,29L44,29z"/>
<path fill="#FFFFFF" d="M59.9,31L59.9,31L59.9,31c0.3-0.3,0.5-0.7,0.4-1.1c-0.1-0.3-0.2-0.5-0.3-0.7c0,0-0.1,0.1-0.1,0.1
	c0.3,0.4,0.4,1,0.1,1.4c-0.2,0.4-0.6,0.5-0.9,0.6c-0.1,0-0.2,0.1-0.4,0.1c0,0-0.5,0.2-0.6,0.2c0,0-0.1,0.1-0.3,0.2l-0.1,0l0-0.1
	c-0.1,0.1-0.3,0.1-0.4,0.1c-0.2,0-0.3,0.1-0.5,0.1l0,0l0,0l-0.1,0c0,0-0.1,0-0.1,0l0-0.1l0,0l0,0.1l-0.1,0l-0.1,0.1l0,0l-0.1,0.1
	l0,0l0,0c-0.2,0.1-0.4,0.2-0.5,0.1l-0.1,0l0-0.1l0.2-0.1c0,0,0.1,0,0.1,0l0.1,0c0.1,0,0.2,0,0.2-0.1l0,0c0,0-0.1,0-0.2,0
	c-0.1,0-0.1,0-0.1,0c-0.1,0-0.2,0.1-0.3,0.1h0l0,0l0,0c0,0,0-0.1,0.1-0.1l0.1,0l0,0l0,0c0.1,0,0.1,0,0.2,0l0,0
	c0.1,0,0.2-0.1,0.3-0.1l0,0l0,0l0,0l0,0l0-0.1l0.1,0l0,0l0-0.1l0,0l0,0l0,0c0.1-0.1,0.2-0.2,0.4-0.3l0.2-0.1L57,31.5l0.1,0l0,0
	L57,31.6l-0.1,0l0,0l-0.1,0.1l0,0c1.4-0.4,2.6-0.8,2.6-0.8c0.3-0.1,0.6-0.4,0.6-0.7l0,0c0-0.2,0-0.4-0.1-0.6c0-0.1,0-0.1-0.1-0.2
	l0,0v0l-0.2-0.3l0,0c0,0.1-0.1,0.1-0.1,0.2c-0.1,0.1-0.1,0.1-0.1,0.2l0,0.1l-0.9,0l0-0.1l-1,0.4l0-0.1l0.1-0.1c0,0,0.1-0.1,0.2-0.1
	c0.2-0.1,0.6-0.3,0.9-0.5c0.2-0.1,0.5-0.2,0.7-0.4l0.1-0.1L59,28.1c-0.1,0-0.2,0.1-0.3,0.2c-0.2,0.1-0.4,0.3-0.5,0.4
	c-0.2,0.2-0.3,0.3-0.5,0.4c-0.3,0.2-0.5,0.3-0.8,0.3l-0.1,0l0.1-0.1c0-0.1,0.1-0.1,0.1-0.1c0.1-0.1,0.2-0.1,0.3-0.2
	c0.1,0,0.2-0.1,0.3-0.1c0.1-0.1,0.1-0.1,0.1-0.2l0-0.1l0.1,0c0.2,0,0.3-0.1,0.5-0.2c0.1,0,0.1-0.1,0.2-0.1c0.1,0,0.1-0.1,0.2-0.1
	c0.1-0.1,0.2-0.2,0.3-0.2l-1.2-2l0,0l-0.1-0.1v0h0l0,0l0,0l-0.4-0.7c-0.1,0.1-0.3,0.1-0.4,0.2l-0.2,0.1l0-0.1l0.1-0.1
	c0.1-0.1,0.2-0.1,0.3-0.2l0.1,0l0,0l0,0c-0.2-0.3-0.4-0.5-0.7-0.6l-0.1,0.1c-0.1,0.1-0.2,0.2-0.4,0.3c-0.1,0.1-0.2,0.1-0.2,0.1
	l-0.1,0l-0.2-0.2l0.1-0.1c0.1,0,0.1-0.1,0.2-0.1l0,0c0,0,0.1,0,0.1,0c0,0,0,0,0-0.1l0-0.1c-0.2,0-0.3,0-0.4,0.1c0,0-0.3,0.1-0.8,0.2
	v0l-0.1,0h0v0l-0.1,0c-0.3,0-0.6,0.1-0.9,0.1c-0.2,0-0.5,0-0.7,0l0-0.1c0,0,0.1,0,0.1,0c-0.1,0-0.2,0-0.3,0c-0.2,0-0.3-0.1-0.4-0.2
	l0,0l-0.1,0c-0.2,0-0.3,0-0.3-0.1c-0.1,0-0.1,0-0.3,0l-0.1,0l0-0.1c-0.1,0-0.2,0-0.3,0.1c-0.1,0-0.2,0-0.2,0l-0.1,0.1l0,0
	c-0.2,0.1-0.3,0.1-0.4,0.2l-0.1,0.1l0.1,0l-0.1,0c-0.1,0-0.2,0.2-0.3,0.4c-0.1,0.2-0.2,0.3-0.2,0.3c0,0.1,0,0.1-0.1,0.2l0,0l-0.1,0
	c-0.1,0.3-0.2,0.5-0.3,0.5l-0.1,0.1l0-0.1c-0.1,0.3-0.1,0.3-0.1,0.3c0,0.1,0,0.2-0.1,0.5l0.1,0c0.1,0,0.1,0,0.2-0.1l0,0l0.5-0.3
	l0.1,0.2l-0.1,0c-0.1,0-0.1,0.1-0.2,0.1l0,0l0,0l-0.1,0l0,0c-0.1,0.1-0.2,0.1-0.3,0.2c-0.1,0.1-0.2,0.2-0.3,0.2
	c-0.1,0.2-0.2,0.5-0.4,0.8c-0.1,0.1-0.1,0.2-0.2,0.3c0,0,0.1-0.1,0.1-0.1c0.2-0.2,0.4-0.2,0.6-0.3l0-0.1l0,0.1l0,0v0.1l0,0.1l0,0
	c-0.2,0.1-0.5,0.2-0.8,0.4l-0.2,0.1c0,0,0,0.1-0.1,0.1c0,0.1-0.1,0.2-0.2,0.3c-0.1,0.1-0.2,0.3-0.3,0.5l0.1,0l0,0.1
	c-0.1,0.1-0.1,0.3-0.1,0.5c0,0,0.1-0.1,0.1-0.2l0-0.1l0.1,0c0.1,0,0.2,0,0.3-0.1l0.1,0l0,0l0,0c0,0,0.1-0.1,0.1-0.1
	c0,0,0.1,0,0.1-0.1c0.1-0.1,0.3-0.2,0.4-0.2l0,0l0,0.1l0,0c-0.2,0.1-0.4,0.2-0.7,0.4l0,0l-0.1,0c-0.1,0.1-0.2,0.1-0.2,0.2
	c-0.1,0.1-0.2,0.1-0.3,0.2c0,0.2,0.1,0.3,0.2,0.4c0.2,0.3,0.5,0.4,0.7,0.5c0.1,0,0.1,0.1,0.2,0.1l0,0l0,0c0.4,0.1,0.6,0.2,0.7,0.3
	l0.1,0l0.1,0l0,0c0.3,0.1,0.4,0.1,0.5,0.1c0.1,0,0.3,0,0.6,0.1h0l0,0l0,0c0.2,0,0.3,0.1,0.5,0.1c0.4,0.1,0.9,0.2,1.4,0.2
	c0.9,0.2,2.3,0.1,3.2,0l0,0h0c0.3,0,0.6-0.1,0.9-0.2c0.1,0,0.2,0,0.2-0.1l0,0c0.2-0.1,0.3-0.1,0.4-0.1c0.1,0,0.2-0.1,0.3-0.1h0
	l0.2,0c0.1-0.1,0.2-0.1,0.2-0.1c0,0,0-0.1,0.1-0.1l0,0c0.2,0,0.7-0.2,0.9-0.3c0.1,0,0.1,0,0.1,0l0,0l0,0l0,0
	C59.4,31.4,59.5,31.3,59.9,31 M48.7,29.1L48.7,29.1c-0.1,0-0.2,0-0.2,0l0,0l-0.1,0.2l-0.1,0c0,0-0.1,0-0.1,0l-0.1,0.1
	c0,0-0.1,0.1-0.1,0.1L48,29.5l-0.1-0.1l1-0.8l0.1,0L48.7,29.1L48.7,29.1z M50.7,27.4c-0.1,0.1-0.3,0.1-0.4,0.2l0,0
	c-0.2,0.1-0.4,0.2-0.6,0.3c-0.1,0-0.1,0.1-0.2,0.1l0,0L49.3,28l0,0c0.1-0.1,0.2-0.2,0.3-0.3c0.2-0.1,0.4-0.2,0.6-0.2
	c0,0,0.1,0,0.1,0c0.1-0.1,0.3-0.1,0.4-0.2l0,0L50.7,27.4L50.7,27.4z M52.3,24.6L52.3,24.6c0.1-0.1,0.1-0.1,0.2,0l0,0.1
	C52.4,24.6,52.3,24.6,52.3,24.6 M51,27.5L51,27.5l0.4-0.5l0.1,0.2L51,27.5z M49.7,31.8L49.7,31.8v-0.2c0.1-0.2,0.2-0.3,0.3-0.3
	c0,0,0.1-0.1,0.1-0.1c0,0,0.1-0.1,0.1-0.1c0.1-0.1,0.2-0.2,0.3-0.3l0-0.1l0.1,0c0,0,0.1,0,0.1,0l0.1-0.1c0,0,0.1,0,0.1-0.1l0.1,0
	l0.2-0.1l-0.1,0.2l0.1,0l0,0.1L49.7,31.8z M51.9,31.2L51.9,31.2l-0.2,0.1l0.1-0.2c0,0-0.1,0-0.1,0.1l0,0l-0.1,0.1l-0.1,0.1l-0.1-0.1
	l0.1-0.1c0,0,0.1,0,0.1-0.1l0,0l0.1,0c0,0,0,0,0.1,0c0.1,0,0.1-0.1,0.1-0.1l0-0.1l0.4,0l-0.1,0.1c0,0,0,0.1,0,0.1l0,0
	C52,31.1,52,31.1,51.9,31.2 M52.4,30.4L52.4,30.4c-0.2,0.1-0.3,0.1-0.4,0.1l-0.1,0c-0.1,0-0.1,0-0.2,0l0,0l0-0.1l1.1-0.6l0.1,0.1
	L52.4,30.4z M53.8,28.6L53.8,28.6c-0.1,0-0.1,0-0.2,0l-0.1,0.1l-0.1,0l0,0c-0.1-0.1,0-0.2,0-0.2l0,0c0,0,0.1-0.1,0.1-0.1l0,0l0.1,0
	l0.5-0.2L53.8,28.6L53.8,28.6z M54.6,28.9c-0.1,0-0.3,0.1-0.4,0.2c0,0-0.1,0.1-0.1,0.1l0,0c-0.1,0.1-0.2,0.2-0.3,0.3l0,0l-0.1-0.1
	l0,0c0.1-0.1,0.1-0.2,0.3-0.3l0,0l0,0c0.1-0.1,0.2-0.2,0.3-0.3c0.1-0.1,0.3-0.1,0.4,0l0.2,0.1L54.6,28.9z M55.8,27.4L55.8,27.4
	l-0.1-0.1l0,0c0.1-0.1,0.1-0.1,0.2-0.1l0,0l0,0c0.1-0.1,0.2-0.1,0.4-0.2c0.1-0.1,0.2-0.2,0.4-0.2c0.2-0.1,0.5-0.4,0.8-0.6l0.1-0.1
	l0.2,0.3l-0.1,0.1c-0.1,0.1-0.2,0.1-0.3,0.2c-0.2,0.2-0.5,0.3-0.7,0.4c-0.2,0.1-0.4,0.2-0.6,0.3C56,27.4,55.9,27.4,55.8,27.4
	 M53.4,32.6l-0.1-0.2l0.7-0.4l0.1,0.2L53.4,32.6z M57.7,26.8L57.7,26.8c-0.2,0.2-0.3,0.3-0.3,0.4l0,0l-0.1,0l0,0h0
	c0,0-0.1,0-0.1,0.1l-0.1,0.1l-0.4,0.3l-0.1-0.1l0,0c0.1-0.1,0.3-0.3,0.5-0.5c0.2-0.1,0.5-0.3,0.6-0.3l0.3-0.1L57.7,26.8z M55.1,32.2
	c-0.2,0-0.2,0-0.2,0l0-0.1v0l0,0c0.1,0,0.1,0,0.2,0l0.2,0l-0.1,0.1L55.1,32.2C55.2,32.2,55.2,32.2,55.1,32.2 M58,26.2
	c-0.1-0.1-0.1-0.2-0.2-0.3l0.1-0.1C57.9,25.9,58,26,58,26.2L58,26.2L58,26.2z M57.2,25c-0.1-0.2-0.2-0.3-0.4-0.4
	C57,24.6,57.1,24.8,57.2,25L57.2,25z M59.3,28.9L59.3,28.9l0.2,0.1h0v0c-0.1,0-0.1,0.1-0.1,0l0,0C59.3,29,59.3,29,59.3,28.9
	 M57.6,25.5c-0.1-0.1-0.1-0.3-0.2-0.4l0.1,0c0.1,0.1,0.2,0.3,0.3,0.5c0,0,0,0.1,0.1,0.1l0,0l-0.1,0.1C57.7,25.7,57.6,25.6,57.6,25.5
	 M58.1,26.3L58.1,26.3L58.1,26.3c0.2,0.2,0.3,0.4,0.4,0.5c0.1,0.2,0.2,0.3,0.3,0.5l0,0c0.1,0.2,0.3,0.4,0.4,0.6c-0.1,0-0.1,0-0.2,0
	c-0.1-0.2-0.3-0.5-0.6-0.9c0-0.1-0.1-0.2-0.2-0.4C58.2,26.6,58.1,26.4,58.1,26.3L58.1,26.3z M59.2,28.2l-0.1-0.1c0.1,0,0.1,0,0.1,0
	l0,0v0c0.1,0.2,0.2,0.4,0.3,0.5l0.2,0.3l0.1,0.1L59.8,29h0l0,0l-0.1-0.1l0,0C59.5,28.6,59.3,28.4,59.2,28.2 M56.1,24.4L56.1,24.4
	L56.1,24.4L56.1,24.4z"/>
<path fill="#FFFFFF" d="M48.3,2.7L48.3,2.7L48.3,2.7L48.3,2.7c0.1,0,0.2,0,0.2,0c0.1,0,0.2-0.1,0.3-0.1l-0.1,0.2l0.1,0
	c-0.1,0-0.2,0.1-0.3,0.1C48.1,3,47.8,3,47.5,3.3c-0.1,0.1-0.2,0.3-0.3,0.4L47,3.8c0.1-0.4,0.3-0.7,0.6-0.9l0,0l0,0
	c0.3-0.1,0.4-0.2,0.5-0.2C48.2,2.7,48.2,2.7,48.3,2.7 M48.8,6.9c-0.3-0.5-0.5-0.8-0.7-1.1c-0.1-0.1-0.2-0.3-0.3-0.5l0,0l-0.1,0.1
	l0,0c0.3,0.5,0.5,0.9,0.8,1.2l0,0c0.1,0.2,0.2,0.4,0.4,0.6l0.1,0C48.8,7.1,48.8,7,48.8,6.9 M49.1,7.7c0-0.1-0.1-0.2-0.2-0.4l0,0l0,0
	c0.1,0.2,0.3,0.5,0.4,0.7l0.2,0C49.3,7.9,49.2,7.8,49.1,7.7L49.1,7.7z M49.9,8.9c0.1,0.2,0.3,0.4,0.4,0.5C50.1,9.3,50,9.1,49.9,8.9
	L49.9,8.9z M49.4,8.1l-0.1,0.1c0.1,0.1,0.1,0.2,0.2,0.3c0.1,0.1,0.1,0.2,0.2,0.3c0,0,0.1,0.1,0.1,0.1l0.1,0c0-0.1-0.1-0.1-0.1-0.2
	C49.6,8.4,49.5,8.2,49.4,8.1 M55.7,10L55.7,10l-0.2,0.1l0,0l0,0L55.7,10L55.7,10z M57.9,8.4L57.9,8.4L57.9,8.4L57.9,8.4l-0.1,0
	l-1.1,0.7v0l-0.1,0c-0.1,0-0.3,0-0.4,0.1c-0.1,0.1-0.2,0.1-0.3,0.2c-0.1,0.1-0.2,0.2-0.3,0.2c-0.1,0-0.1,0.1-0.2,0.1
	c0,0-0.1,0-0.1,0l0,0c-0.1,0-0.1,0-0.1,0l0-0.1l-0.1,0.1l0,0L55,9.8l-0.1,0.1l0,0l0,0l0,0v0l0,0c-0.1,0-0.1-0.1-0.2-0.1
	c0,0,0.1-0.1,0.1-0.1l0.1,0c0.1-0.1,0.1-0.1,0.2-0.1l0.1,0l0-0.1c0-0.1,0-0.2,0.1-0.2l0,0l0,0c0,0,0.1,0,0.1,0c0,0,0.1,0,0.1,0
	c0,0,0.1,0,0.1,0c0.1,0,0.3,0,0.4-0.1c0.1,0,0.1-0.1,0.2-0.2l0-0.1l-0.1,0c-0.1-0.1-0.2,0-0.4,0l-0.1,0c-0.1,0-0.1,0-0.2,0
	c0,0-0.1,0-0.1,0c0,0,0,0,0-0.2l0.1-0.2L55,9L55,9l0,0l0,0c0,0,0,0.1,0,0.1l0,0c0,0-0.1,0-0.1,0l-0.1,0l-0.1,0l0,0.1
	c0,0-0.1,0.1-0.1,0.1c0,0-0.1,0-0.1,0.1c0,0-0.1,0-0.1,0.1l-0.1,0l0,0l0,0c-0.1,0-0.2,0-0.2,0c0,0,0.1,0,0.1,0l0-0.1
	c-0.3,0-0.5,0-0.8,0c-0.3,0-0.6,0-0.9,0.1l-0.1,0h0l0,0l-0.1,0l0,0c-0.3,0.1-0.5,0.1-0.5,0.1c-0.1,0-0.3,0.1-0.4,0.1
	c0.1,0,0.2-0.1,0.3-0.1c0.2-0.1,0.5-0.2,0.7-0.3c0.2-0.1,0.3-0.2,0.4-0.4h0.1l0,0.2L53,9c0.1-0.1,0.2-0.2,0.5-0.4
	c0.1-0.1,0.2-0.1,0.3-0.2c0.1,0,0.2-0.1,0.2-0.1c0,0,0.1-0.1,0.1-0.1l0.2-0.1l-0.5,0l0,0c-0.2,0.2-0.4,0.4-0.7,0.5
	c-0.1,0.1-0.2,0.1-0.3,0.2l0,0l0,0C52.5,9,52.4,9,52.3,9.1l-0.2,0.1l0.2,0.1l0,0c-0.1,0-0.3,0-0.5,0.2c-0.1,0-0.1,0.1-0.2,0.1
	c-0.1,0-0.1,0.1-0.2,0.1c-0.1,0-0.1,0.1-0.1,0.1l0,0l0,0c-0.2,0-0.3-0.1-0.5-0.2c-0.2-0.1-0.4-0.3-0.5-0.5L50,8.8l0,0v0l0,0l0.1-0.1
	l0-0.1l-0.1,0.1l-0.9-1.5c0.1,0,0.1-0.1,0.2-0.1c0.2-0.1,0.4-0.2,0.5-0.4l0-0.1l-0.1-0.1l0,0c-0.1,0.1-0.3,0.2-0.5,0.4
	C49.1,7,49.1,7,49,7.1l-1.1-1.9l0.1,0c0.1,0,0.1,0,0.1,0l0.2,0l-0.2-0.3L48,4.9c0,0-0.1,0-0.1,0.1l0,0l0,0l0,0v0l-0.1-0.1l0,0l0,0
	l-0.2-0.2v0h0l0,0l0,0l0,0l0-0.1l0,0c0-0.1-0.1-0.2-0.1-0.3c-0.1-0.2,0-0.4,0.1-0.6l0,0c0.1-0.2,0.3-0.4,0.5-0.4
	c0,0,1.6-0.6,3.3-0.9V2.3c-0.1,0-0.2,0-0.3,0l0-0.1c-0.1,0-0.1,0-0.1,0l-0.1,0h0l0,0c-0.1,0.1-0.3,0.1-0.5,0.1
	c-0.2,0-0.3,0.1-0.4,0.1l0-0.1l-0.1,0c-0.3,0.1-0.3,0.1-0.3,0.2c-0.1,0-0.4,0.1-0.6,0.1c0.1-0.1,0.2-0.2,0.4-0.3l0.1,0l0,0
	c0.1,0,0.1-0.1,0.1-0.1c0,0,0,0,0.2-0.1l0.2,0h0c0.1,0,0.2-0.1,0.3-0.1c0.1,0,0.3-0.1,0.4-0.1l0,0c0.1,0,0.2,0,0.3-0.1
	c0.3-0.1,0.6-0.1,0.9-0.1h0l0,0c1.1-0.1,2.4-0.1,3.2,0.1C55.5,1.9,56,2,56.4,2.1c0.2,0,0.4,0.1,0.6,0.1l0,0l0,0l0,0
	c0.3,0.1,0.5,0.1,0.6,0.2c0.1,0,0.3,0,0.5,0.1h0l0.1,0l0.1,0c0.1,0.1,0.3,0.2,0.7,0.3l0,0l0,0l0,0l0.1,0c0.2,0.1,0.6,0.4,0.7,0.8
	c0,0.1,0.1,0.2,0.1,0.2c-0.1,0.1-0.2,0.2-0.3,0.2c-0.2,0.1-0.4,0.2-0.7,0.3l0,0v0.1l0,0l0,0c0.2,0,0.4-0.1,0.5-0.2
	c0.1,0,0.1-0.1,0.2-0.1l0,0c0,0,0.1-0.1,0.2-0.1c0,0.3-0.2,0.6-0.2,0.7l-0.1,0.1l0.1,0c-0.1,0.2-0.2,0.3-0.3,0.4
	c-0.1,0.1-0.1,0.2-0.2,0.3c-0.1,0.2-0.3,0.5-0.4,0.8c-0.2,0.3-0.4,0.7-0.4,0.9l-0.2,0.2l-0.1,0.2l0,0l0,0c-0.2,0.4-0.2,0.5-0.2,0.5
	C58,8.2,58,8.2,57.9,8.4 M49.1,4.5V4.4l0,0c-0.1,0-0.3,0.1-0.5,0.2c-0.1,0.1-0.2,0.1-0.2,0.2l0,0l0.1,0.1L49.1,4.5z M49.4,5.6
	l-0.1-0.2l-0.6,0.4L48.9,6L49.4,5.6z M52.1,2.1L52.1,2.1L52.1,2.1L52.1,2.1c-0.2,0-0.3,0-0.4,0.1c0,0,0,0-0.1,0
	c-0.2,0-0.2,0.1-0.2,0.1l0,0.1l0,0l0,0c0.1,0,0.2,0,0.3-0.1l0,0v0c0.1,0,0.1,0,0.2,0l0,0l0,0L52.1,2.1C52.1,2.2,52.1,2.1,52.1,2.1
	 M52.5,2.2c0.1,0,0.2,0,0.3,0l0,0l0,0l0-0.1c0,0-0.1,0-0.2,0l0,0C52.4,2,52.4,2,52.5,2.2L52.5,2.2l-0.1,0L52.5,2.2z M52.8,2.9
	L52.8,2.9l-0.1-0.1l0-0.1l0-0.1l-0.1-0.1c0,0-0.1,0-0.2,0l-0.1,0l0.3,0.4L52.8,2.9z M52.1,7.4L52.1,7.4l-1.3,0.8l0.1,0.1l0.5-0.3
	L52.1,7.4z M55.6,4l0,0.1l0.7-0.4l-0.1-0.1L55.6,4z M54.2,5L54.2,5l0.1,0c0.1,0,0.2-0.1,0.4-0.2c0.1-0.1,0.3-0.2,0.4-0.3l0,0l0.1,0
	c0.1-0.1,0.2-0.2,0.3-0.3L55.5,4l-0.1,0L55.3,4c-0.1,0.1-0.2,0.2-0.3,0.3c-0.1,0.1-0.2,0.1-0.2,0.1l-0.1,0l0,0.1
	c0,0-0.1,0.1-0.2,0.2c-0.1,0.1-0.1,0.1-0.2,0.1l0,0L54.2,5L54.2,5z M53.7,5.7l0.1,0.2l0.6-0.4l-0.1-0.1L53.7,5.7z M53.9,6.5l0-0.1
	l-0.6,0.3l0.1,0.1l0,0l0,0c0.1,0,0.2,0,0.2,0c0.1,0,0.1-0.1,0.1-0.1l0,0C53.8,6.6,53.8,6.6,53.9,6.5L53.9,6.5z M54.6,6.2L54.6,6.2
	c0.1-0.1,0.1-0.1,0.2-0.1c0,0,0.1-0.1,0.1-0.1l0.1,0l0,0c0.1,0,0.1-0.1,0.1-0.2c0.2-0.1,0.3-0.2,0.5-0.3c0.1-0.1,0.2-0.2,0.3-0.2
	c0.1-0.1,0.2-0.2,0.3-0.2c0.2-0.1,0.3-0.2,0.5-0.3l0,0l0-0.1l0,0c-0.3,0-0.6,0.2-0.8,0.3c-0.1,0-0.1,0.1-0.2,0.1
	c0,0-0.1,0.1-0.2,0.1c-0.3,0.2-0.5,0.3-0.7,0.2l-0.1,0l0.3-0.2L55.1,5l-0.6,0.4l0.1,0.2l0.2-0.1L55,5.7c0,0-0.1,0.1-0.1,0.1
	c0,0-0.1,0-0.1,0l0,0c-0.1,0-0.1,0-0.2,0.1c-0.1,0-0.1,0.1-0.1,0.1l0,0l-0.1,0l0,0l-0.1,0.1l-0.3,0.2l0.5,0l0.1-0.1l0,0l0.1,0
	L54.6,6.2L54.6,6.2z M54.8,7.5L54.8,7.5c-0.1-0.1-0.2-0.1-0.3-0.1c-0.1,0-0.2,0.1-0.2,0.1l-0.2,0.1l0.1,0.2l0.2-0.1
	c0,0,0.1-0.1,0.1-0.1l0.1-0.1c0.1,0,0.1,0,0.1,0l0,0L54.8,7.5z M57.2,5.5L57.2,5.5l-0.2,0c-0.1,0-0.2,0.1-0.4,0.1l0,0l0,0
	c-0.2,0.1-0.5,0.2-0.8,0.5c-0.1,0.1-0.2,0.1-0.3,0.2c-0.1,0.1-0.2,0.1-0.3,0.2c-0.3,0.2-0.6,0.4-0.9,0.5l0,0L54,7.4l2.6-1.6l0-0.1
	c0.1,0,0.2-0.1,0.2-0.1l0.1,0l0.1,0L57.2,5.5z M58.8,6.1l-0.2,0c-0.1,0-0.2,0-0.3,0.1c-0.1,0.1-0.1,0.1-0.1,0.2l0,0l0,0.1l-0.2,0.2
	l0,0.1l0,0c0.1,0,0.1,0,0.2-0.1c0.1,0,0.1-0.1,0.1-0.1L58.8,6.1z M59.4,5.3l-0.1-0.1l0,0c0,0-0.1,0-0.2,0l0,0c-0.1,0-0.2,0-0.3,0.1
	c-0.1,0-0.1,0.1-0.1,0.1l0,0.1l0.1,0c0.2,0,0.4,0,0.6-0.2C59.3,5.4,59.3,5.3,59.4,5.3L59.4,5.3z M56,9.9L56,9.9l-0.2,0.2
	c0.1,0,0.1,0,0.2,0l0.1-0.1l0,0c0.2,0,0.3-0.1,0.4-0.1c0,0,0.1,0,0.1,0l-0.1-0.1l0.1,0c0.1,0,0.3-0.3,0.4-0.4
	c0.1-0.1,0.2-0.2,0.2-0.2l0-0.1L56,9.9z M47.4,4.8L47.4,4.8L47.4,4.8c-0.2-0.2-0.3-0.5-0.2-0.8C47.1,4,47.1,4,47,4
	c0,0.4,0.2,0.8,0.4,1c0,0,0.1,0.1,0.1,0.1l0.1,0l0,0C47.5,5.1,47.5,5,47.4,4.8L47.4,4.8L47.4,4.8L47.4,4.8z"/>
<path fill="#FFFFFF" d="M41.3,8.3L41.3,8.3L41.3,8.3L41.3,8.3 M38.8,14.7c0,0,0.1-0.1,0.1-0.2l0-0.5l0,0l0,0c0-0.1,0-0.4,0.1-0.6
	c0-0.2,0.1-0.3,0.1-0.4l0,0l0-0.1c0-0.3,0.1-0.5,0.2-0.8c0.1-0.2,0.1-0.5,0.2-0.7l0,0c0,0,0.1-0.1,0.1-0.2l0.1,0
	c0-0.1,0.1-0.2,0.1-0.2l0,0l0,0l0,0l0,0v0c0.1-0.1,0.1-0.2,0.1-0.3c0-0.1,0-0.2,0.1-0.3l0-0.1l-0.1,0c0.1-0.1,0.2-0.2,0.2-0.3
	c0.1-0.1,0.1-0.2,0.3-0.5l0,0v0c0-0.1,0-0.1,0-0.1c0-0.1,0-0.1,0-0.2l0,0C40.8,9,40.9,9,41,8.8l0,0l0,0l0,0l0,0
	c0.1-0.1,0.2-0.2,0.2-0.4l0.1,0.1l0.5-0.3l-0.1-0.2l-0.3,0.3l0.2-0.3l0,0l0,0l0.2,0l-0.1-0.2c0.1-0.1,0.2-0.2,0.2-0.3l0,0
	c0,0,0.1,0,0.1-0.1l0,0c0,0.1-0.1,0.1-0.1,0.2L42,7.6l0.1-0.1l0,0l0,0l0,0l0,0.1l0.1-0.1c0,0,0.1-0.1,0.1-0.1l0,0l0,0
	c0,0,0,0,0.1-0.1c0.1-0.1,0.1-0.1,0.2-0.2l0,0v0l0-0.1c0.1-0.1,0.3-0.3,0.4-0.4l0,0l0,0l0,0l0,0c0.6-0.6,1.1-1,1.1-1
	c0.3-0.3,0.7-0.3,1-0.1c0.1,0.1,0.3,0.2,0.3,0.4l0.4,0.6l0,0L46,6.5l0,0c0,0-0.1,0.1-0.2,0.1l-0.1,0l0.2,0.2l0.1-0.1
	c0,0,0.1-0.1,0.2-0.1l0,0l0,0l0,0l0,0l0,0l0,0.1c0.1,0.2,0.3,0.4,0.4,0.7c-0.1,0.1-0.1,0.1-0.2,0.2c-0.2,0.1-0.3,0.2-0.5,0.3
	c-0.2,0.1-0.4,0.2-0.6,0.3c-0.1,0.1-0.2,0.1-0.3,0.2l0,0l0.1,0.1l0,0c0.1-0.1,0.3-0.1,0.4-0.2c0.3-0.1,0.6-0.2,0.9-0.4
	c0.1-0.1,0.2-0.2,0.3-0.2c0,0.1,0.1,0.1,0.1,0.2l0,0l1.5,2.6c0.3,0.5,0.2,1.3-0.3,1.7c0,0-0.5,0.5-1,1.3c-0.1,0.2-0.2,0.4-0.3,0.7
	l0,0.1l0,0l0,0.1l0,0l0,0l0,0l0,0l0,0c-0.1,0.3-0.2,0.5-0.2,0.7c-0.2,0.1-0.4,0.2-0.5,0.3c-0.1,0.1-0.2,0.1-0.3,0.2l-0.1,0l0.1,0.2
	l0,0l0,0h0.1c0.1,0,0.1,0,0.2-0.1l0.1-0.1l0.1-0.1l-0.2,0l0,0l0,0c0,0,0.1,0,0.1,0l0.1,0l0,0l0.1-0.1l0,0c-0.1,0.2-0.2,0.3-0.3,0.5
	c-0.1,0.1-0.1,0.1-0.2,0.2c-0.3,0.3-0.8,0.3-1.3,0.3h-0.1c-0.4,0-0.9,0-1.3,0.1l0,0l-0.1,0h0h0c-1.1,0-2.1,0-3.1,0
	c-0.3,0.1-0.6-0.1-0.9-0.2C39.1,16.1,39,16.1,39,16C38.7,15.7,38.7,15.2,38.8,14.7L38.8,14.7z M40.8,12.6c0.1,0,0.1-0.1,0.2-0.1
	c0.1-0.1,0.2-0.2,0.3-0.3c0.1-0.1,0.1-0.1,0.2-0.2c0,0,0.1-0.1,0.2-0.1l0.1,0l0-0.5l-0.1,0.1c0,0-0.1,0.1-0.1,0.1
	c-0.1,0-0.1,0.1-0.2,0.1C41.1,11.9,41,12,41,12c-0.1,0.1-0.2,0.1-0.3,0.2C40.6,12.4,40.6,12.5,40.8,12.6L40.8,12.6L40.8,12.6z
	 M40.3,14.7l-0.1-0.2l-0.5,0.3l-0.1,0l0.1,0.2L40.3,14.7z M43.2,9.5l0-0.1L41.8,10l0.1,0.2l0.1,0c0.1,0,0.1-0.1,0.2-0.1h0
	c0.1,0,0.2,0,0.3-0.1c0.1,0,0.1-0.1,0.1-0.2c0.1,0,0.2,0,0.3-0.1c0,0,0.1-0.1,0.1-0.1C43,9.6,43.1,9.6,43.2,9.5L43.2,9.5z M42.7,9.2
	L42.7,9.2l0,0.1l0,0l0.1-0.1c0,0,0.1,0,0.1-0.1c0,0,0.1-0.1,0.1-0.1c0,0,0.1-0.1,0.1-0.1c0-0.1,0.1-0.1,0-0.2l0,0l-0.1,0
	c-0.1,0-0.2,0-0.2,0.1c-0.1,0-0.1,0.1-0.1,0.2l0,0C42.8,9.1,42.8,9.1,42.7,9.2 M42.2,14.4l0.5-0.3l0.1-0.1l-0.1-0.1l-0.1,0
	c0,0-0.1,0-0.1,0l0,0c-0.1,0-0.1,0-0.2,0.1c-0.1,0-0.1,0.1-0.1,0.2L42.2,14.4z M42.6,15.2l-0.1-0.1l-0.6,0.3l0.1,0.2L42.6,15.2z
	 M44,13.4l0-0.1l0,0c-0.1,0-0.1,0-0.2,0c-0.1,0-0.2,0-0.3,0l0,0l-0.1,0l0,0c0,0,0,0,0.1-0.1c0,0,0.1,0,0.1-0.1c0,0,0.1,0,0.1-0.1
	l0.1-0.1l0.1-0.1l-0.1,0c-0.1,0-0.2,0-0.4,0.1c-0.1,0.1-0.2,0.1-0.2,0.2c-0.1,0-0.1,0-0.2,0c-0.1,0.1-0.1,0.1-0.2,0.2h0l0,0.1l0,0
	v0.1l0.1,0l0,0l0,0l0,0l0-0.1l0.1,0c0.1,0,0.1-0.1,0.2-0.1l0,0l0,0.1l0,0l0,0.1c0.1,0,0.2,0,0.3,0c0,0,0.1,0,0.1,0
	C43.8,13.4,43.9,13.4,44,13.4L44,13.4z M44.7,12.5c0.1,0.1,0.2,0.1,0.4,0.1c0.1,0,0.3-0.1,0.4-0.2c0.1,0,0.1-0.1,0.1-0.1
	c0,0,0.1-0.1,0.1-0.1l0.2-0.1l-0.2,0c-0.1,0-0.1,0-0.3,0.1c-0.1,0-0.2,0.1-0.2,0.1c0,0-0.1,0.1-0.1,0.1c-0.1,0-0.1,0.1-0.1,0.1h0
	c0,0,0-0.1,0-0.1l0-0.1l-0.1,0c-0.1,0-0.2,0-0.3,0c-0.1,0-0.1,0.1-0.2,0.2l0,0c0,0-0.1,0.1-0.1,0.1c0,0-0.1,0-0.1,0l0,0l-0.1,0.1
	l0,0l0,0.1l0,0.1l-0.1,0.2l0.2-0.1c0,0,0.1,0,0.1-0.1C44.5,12.7,44.6,12.6,44.7,12.5L44.7,12.5z M45.7,11L45.7,11c0,0,0-0.1,0.1-0.1
	c0-0.1,0.1-0.1,0.2-0.2l0.1-0.1l0-0.1l-0.1,0c0,0-0.1,0-0.1,0.1c-0.1,0.1-0.1,0.1-0.2,0.2l0,0c0,0-0.1,0.1-0.1,0.1l0,0
	c0,0-0.1,0.1-0.1,0.1l-0.1,0.1l0.2,0l0,0C45.7,11.1,45.7,11.1,45.7,11 M44.2,15.8L44.1,16l0.6-0.4c0.1,0,0.1-0.1,0.2-0.1
	c0,0,0.1-0.1,0.1-0.1l0,0l-0.1-0.1l-0.3,0.2l-0.1,0c-0.1,0-0.2,0-0.3,0.1C44.3,15.7,44.2,15.7,44.2,15.8 M44.8,14.3l-0.3,0
	c-0.1,0-0.1,0-0.2-0.1c0-0.1,0-0.2,0.1-0.3l0,0l0,0l-0.1,0.1l0.1,0l0.1-0.1c0.1-0.1,0.2-0.1,0.2-0.2c0,0,0.1-0.1,0.1-0.2l0,0l0,0
	c-0.1,0-0.3,0.1-0.4,0.2c-0.2,0.1-0.3,0.2-0.4,0.4c-0.1,0.1-0.1,0.1-0.2,0.1l0,0l0,0.1l0,0.1h0l0,0l0.1,0l0.2,0l0,0.1l0,0.1
	l-0.1,0.2l0.2-0.1c0.1,0,0.1-0.1,0.1-0.1c0,0,0.1,0,0.1,0l0,0c0.1,0,0.2,0,0.3,0l0,0L44.8,14.3z M46.2,10.5L46.2,10.5l0.3,0.1
	l0.7-0.4L47.1,10L46.2,10.5z M45.5,9.8l0.1,0.1c0.2,0.1,0.4,0.1,0.5-0.1c0.1-0.1,0.2-0.2,0.3-0.3c0.1-0.1,0.2-0.2,0.3-0.3l0.1-0.1
	l-0.1-0.1c-0.1,0-0.2,0-0.3,0c-0.1,0-0.1,0.1-0.1,0.2c-0.1,0-0.2,0.1-0.3,0.1c0,0-0.1,0.1-0.1,0.1c-0.1,0-0.1,0.1-0.1,0.1
	c0,0-0.1,0-0.1,0.1L45.5,9.8z M42.8,12.8l0.2-0.1c0.2-0.1,0.4-0.2,0.6-0.3c0.3-0.2,0.6-0.4,0.8-0.6l0,0l0,0c0.2-0.1,0.3-0.2,0.4-0.4
	l0,0L45,11.2l0,0c-0.2,0.1-0.3,0.3-0.5,0.4c-0.1,0.1-0.3,0.2-0.4,0.2c-0.2,0.1-0.4,0.2-0.5,0.3c-0.2,0.1-0.4,0.3-0.5,0.4L42.8,12.8z
	 M40.4,15.2L40.4,15.2c-0.2,0.1-0.4,0.3-0.4,0.5l-0.1,0.2l0.2-0.1c0,0,0.1,0,0.1-0.1c0.2-0.1,0.3-0.3,0.3-0.4
	c0.2-0.1,0.4-0.1,0.5-0.3c0.1-0.1,0.2-0.1,0.3-0.2c0.1-0.1,0.2-0.1,0.3-0.2c0.1,0,0.1-0.1,0.2-0.1l0,0l0-0.1l-0.5,0.1l0,0
	c-0.1,0.1-0.3,0.3-0.4,0.4c-0.1,0-0.1,0.1-0.2,0.1c-0.1,0-0.1,0.1-0.2,0.1L40.4,15.2L40.4,15.2z M44.1,7.4l0.1,0
	c0.1,0,0.3-0.1,0.5-0.2C45,7.1,45.1,7,45.1,6.9l0-0.1l-0.1,0c-0.1,0-0.3,0.1-0.5,0.2c-0.2,0.1-0.3,0.2-0.4,0.3L44.1,7.4z M43.4,7.9
	c-0.1,0.1-0.2,0.2-0.1,0.3l0,0.1l0.1-0.1c0,0,0.1-0.1,0.1-0.1C43.6,8,43.7,8,43.9,8c0.1,0,0.2-0.1,0.3-0.1l0.1,0l-0.1-0.1
	c0,0,0-0.1,0-0.1l0,0l0,0l0,0l-0.1,0l0,0l0,0c0,0-0.1,0.1-0.1,0.1c-0.1,0.1-0.2,0.1-0.3,0.1C43.6,7.8,43.5,7.8,43.4,7.9 M43.6,6.7
	L43.6,6.7l0.1,0l0,0c0-0.1,0.2-0.2,0.3-0.3l0,0c0.1-0.1,0.1-0.1,0.2-0.2C44.4,6.1,44.4,6,44.4,6l0-0.1l-0.1,0C44.2,6,44.1,6,44.1,6
	C43.8,6.2,43.6,6.5,43.6,6.7 M42.1,9.2c0.1-0.1,0.2-0.1,0.3-0.2c0.2-0.1,0.4-0.3,0.5-0.5l0,0l-0.1-0.1l-1,0.8l0,0l0.1,0.1l0.1-0.1
	C41.9,9.3,42,9.2,42.1,9.2"/>
<path fill="#FFFFFF" d="M65,18l0.2-0.1l0.1,0l0,0c0.5,0,1,0,1.5-0.1l0.3,0c0.1,0,0.1,0,0.2,0l0,0c-0.1,0.1-0.2,0.1-0.2,0.1
	c-0.3,0-0.5,0-0.7,0l0,0l0,0l0,0c-0.3,0-0.7,0.1-1.1,0.1L65,18 M63,18c-0.1,0-0.1,0-0.2,0L63,18c0-0.1,0.1-0.1,0.3-0.1
	c0.5,0,1,0,1.5,0l0.1,0c-0.1,0-0.1,0.1-0.2,0.1c-0.1,0-0.1,0-0.2,0c-0.1,0-0.3,0-0.4,0h0C63.9,18,63.7,18,63.4,18
	C63.3,18,63.1,18,63,18 M62.7,18L62.7,18L62.7,18c-0.3,0.1-0.5,0.1-0.8,0.1C62.1,18,62.4,18,62.7,18 M61.3,18.6L61.3,18.6
	c0.2-0.1,0.2-0.1,0.3-0.2c0,0,0.1,0,0.1-0.1c0.1-0.1,0.2-0.1,0.3-0.1l0,0l-0.2,0.1l0-0.1l-0.2,0.1l-0.1,0.1c0,0-0.1,0.1-0.1,0.1
	C61.4,18.6,61.4,18.7,61.3,18.6c0,0.1,0,0.1,0,0.2L61.3,18.6 M68.2,20.4L68.2,20.4L68.2,20.4 M67.9,22.2L67.9,22.2L67.9,22.2
	L67.9,22.2c0.1-0.2,0.1-0.4,0.2-0.5c0.1-0.1,0.1-0.3,0.1-0.4l0.1,0.1l0-0.1c0.1-0.3,0.1-0.3,0-0.4c0.1-0.1,0.2-0.6,0.2-0.6
	c0-0.2,0.1-0.3,0.1-0.5c0.1-0.3,0.1-0.6,0.1-1c0-0.3-0.2-0.6-0.5-0.7C68.1,18,68,18,67.9,18c0,0,0-0.1,0.1-0.1
	c0.1,0,0.3,0.1,0.4,0.2c0.3,0.2,0.5,0.6,0.6,1.1l0,0l0,0c0,0.3,0,0.4,0,0.5v0.1l0,0l0,0v0c0,0,0,0.1,0,0.2c0,0.2-0.1,0.7-0.2,0.9v0
	c0,0.1,0,0.1,0,0.2c0,0,0,0,0,0.2l-0.1,0.1l0,0c0,0.1-0.1,0.2-0.1,0.3c0,0.1-0.1,0.2-0.1,0.3C68.1,22.1,68,22.2,67.9,22.2l0,0.1
	C67.9,22.2,67.9,22.2,67.9,22.2 M67.8,22.4L67.8,22.4L67.8,22.4L67.8,22.4L67.8,22.4L67.8,22.4 M64.6,19.5c-0.1,0-0.1,0.1-0.2,0.1
	c-0.1,0-0.2,0-0.2,0.1c-0.1,0.1-0.1,0.1-0.2,0.2L64,20.2l0.2-0.2c0,0,0.1-0.1,0.1-0.1c0.1-0.1,0.2-0.1,0.4-0.1c0.1,0,0.2,0,0.3-0.1
	l0.2-0.1l-0.4-0.1L64.6,19.5 M63.8,18.8c-0.3,0.1-0.5,0.2-0.7,0.4c-0.2,0.1-0.5,0.3-0.7,0.4c-0.2,0.2-0.5,0.3-0.6,0.4l0,0l0.1,0.1
	l0,0c0.1-0.1,0.2-0.1,0.3-0.2c0.1-0.1,0.3-0.2,0.4-0.3c0.1-0.1,0.2-0.2,0.4-0.2c0.1,0,0.1-0.1,0.2-0.1c0.3-0.2,0.5-0.3,0.7-0.4l0,0
	L63.8,18.8L63.8,18.8 M61.2,20.9L61.2,20.9l0.5,0.1c0.1,0,0.3-0.1,0.4-0.2c0.1-0.1,0.2-0.2,0.3-0.3l0.1-0.2L61.2,20.9 M63.4,20.5
	L63.4,20.5l-0.1,0.1c0,0-0.1,0.1-0.1,0.1c0,0-0.1,0.1-0.1,0.1c-0.1,0-0.1,0.1-0.1,0.1c0,0.1-0.1,0.1,0,0.2l0,0l0.7-0.2l-0.2-0.1h0
	l0-0.1h0.1l0,0c0.1-0.1,0.3-0.1,0.5-0.2c0.3-0.1,0.7-0.2,0.9-0.4c0.2-0.1,0.3-0.2,0.4-0.4l0.1-0.1l-0.3,0l0,0.1
	C65,19.9,64.9,20,64.8,20c-0.1,0.1-0.3,0.1-0.5,0.2l0,0c-0.2,0-0.3,0.1-0.5,0.2c0,0-0.1,0.1-0.1,0.1l0,0c0,0-0.1,0-0.1,0l0,0
	C63.5,20.5,63.5,20.5,63.4,20.5C63.4,20.5,63.4,20.5,63.4,20.5 M62.1,21.2c-0.1,0-0.2,0.1-0.4,0.2c-0.1,0.1-0.3,0.2-0.4,0.3
	l-0.1,0.1l0,0c-0.1,0-0.1,0.1-0.2,0.1l0,0l0,0.1l0.1,0l0.1,0c0,0,0.1-0.1,0.1-0.1c0.1-0.1,0.2-0.1,0.3-0.2c0.1-0.1,0.2-0.1,0.3-0.2
	c0.1-0.1,0.1-0.1,0.2-0.2l0.1-0.1L62.1,21.2 M59.8,22.2c-0.1,0-0.3,0.1-0.4,0.1c-0.1,0.1-0.2,0.2-0.3,0.3c-0.1,0.1-0.2,0.2-0.3,0.2
	l-0.1,0.1l0,0.1h0c0.1,0,0.3-0.1,0.4-0.1c0.1-0.1,0.2-0.2,0.3-0.2c0.1-0.1,0.2-0.2,0.2-0.2c0.1-0.1,0.2-0.1,0.3-0.1l0.1,0l0-0.1l0,0
	c0-0.1,0.1-0.1,0-0.2L60,22l-0.1,0L59.8,22.2 M60.2,22.5c-0.1,0-0.2,0.1-0.2,0.1c-0.1,0.1-0.2,0.1-0.2,0.2c-0.1,0.1-0.3,0.2-0.4,0.3
	c-0.1,0.1-0.2,0.1-0.3,0.2l0,0v0l-0.1,0l-0.1,0c0,0-0.1,0-0.1,0.1l-0.1,0c0,0-0.1,0-0.1,0c0,0-0.1,0.1-0.1,0.1l0,0.1l0.1,0.1l0,0
	c0,0,0.1-0.1,0.1-0.1l0,0l0.1,0l0,0c0.1,0,0.1,0,0.2-0.1c0.1,0,0.1-0.1,0.1-0.1c0.1,0,0.2-0.1,0.3-0.1c0.1-0.1,0.2-0.2,0.3-0.3
	l0.1-0.1l0.1-0.1c0.1-0.1,0.2-0.1,0.3-0.2l0,0L60.2,22.5L60.2,22.5 M67.2,23.6c0,0.1-0.1,0.2-0.1,0.2l0,0l0,0l0,0
	c0,0,0.1-0.1,0.2-0.2l0,0C67.3,23.7,67.3,23.6,67.2,23.6L67.2,23.6l0-0.1L67.2,23.6 M64.8,26.1c-0.1,0-0.1,0.1-0.2,0.1
	c-0.2,0.1-0.3,0.3-0.4,0.4c0,0-0.1,0.1-0.1,0.1l0,0.1l0.1,0l0,0l0,0c0.1-0.2,0.3-0.3,0.5-0.4c0.1-0.1,0.1-0.1,0.2-0.1L64.8,26.1
	L64.8,26.1L64.8,26.1 M61.9,26L61.9,26c-0.1,0.1-0.1,0.2-0.2,0.3c-0.1,0.1-0.3,0.1-0.4,0.2l0,0l0,0l0,0c-0.2,0.1-0.3,0.1-0.5,0.2
	l-0.1,0l0.1,0.2l0.3-0.2h0.1l0,0l0.1,0l0.1-0.2c0.1,0,0.2-0.1,0.3-0.2l0.1,0l0.1,0c0.2-0.1,0.5-0.2,0.7-0.4c0.2-0.1,0.3-0.2,0.4-0.3
	l0.1-0.2L61.9,26 M63.2,27.1L63.2,27.1l0.6-0.1l0.3-0.5L63.2,27.1 M62.2,29.3c-0.1,0-0.3-0.1-0.4-0.1c-0.2-0.1-0.4-0.3-0.5-0.5
	l0.1-0.1c0.2-0.1,0.3-0.2,0.3-0.3l0-0.1l-0.3,0.1c0,0-0.1,0.1-0.1,0.1c0,0-0.1,0.1-0.1,0.1l-0.1,0c-0.1-0.2-0.1-0.3-0.2-0.4
	c0-0.1-0.1-0.2-0.2-0.3c-0.2-0.2-0.3-0.5-0.4-0.8c-0.2-0.3-0.4-0.7-0.5-0.8L59.7,26l-0.1-0.1l0,0l0,0c0-0.1-0.1-0.1-0.1-0.2l0,0
	c0.1,0,0.1-0.1,0.2-0.1c0,0,0.1,0,0.1,0l0,0l0.3-0.2l0-0.1c0,0,0-0.1,0-0.1l0,0c0,0,0.1,0,0.2-0.1c0.1,0,0.2,0,0.3-0.1
	c0.1,0,0.1-0.1,0.1-0.1l0.1-0.1l-0.3-0.1l0,0.1l-0.1,0.1c-0.1,0-0.1,0.1-0.2,0.1l0,0c-0.1,0-0.1,0-0.2,0.1c-0.1,0-0.1,0.1-0.1,0.2
	c-0.1,0-0.3,0.1-0.5,0.2l0,0c-0.1,0-0.1,0-0.1,0l-0.1,0c0,0-0.1-0.1-0.1-0.2c0.1-0.1,0.1-0.1,0.2-0.2h0.1l0,0.2l0.2-0.2
	c0.1-0.1,0.1-0.2,0-0.3l0,0l0,0l0,0l-0.1,0c-0.1,0-0.3,0.1-0.4,0.2c0-0.1-0.1-0.2-0.2-0.3l0-0.1l0,0c0-0.1-0.1-0.1-0.1-0.2v0
	c0.1,0,0.1-0.1,0.2-0.1l0,0L58.8,24l0,0c0,0-0.1,0-0.1,0.1l0,0l0-0.1c-0.1-0.2-0.2-0.5-0.2-0.6l0.1-0.1l-0.1,0.1c0,0,0-0.1,0-0.1
	c0-0.1,0-0.2,0.1-0.4l0,0l0-0.1c0-0.1,0.1-0.1,0.1-0.2c0.1-0.1,0.1-0.2,0.2-0.3l0.1,0.1l0,0c0.1-0.2,0.1-0.2,0.2-0.2
	c0,0,0.1-0.1,0.2-0.3l0.1-0.1c0.1-0.1,0.2-0.1,0.4-0.3c0.1-0.1,0.1-0.2,0.2-0.2c0,0,0,0.1-0.1,0.1l0.1,0c0.2-0.2,0.3-0.4,0.4-0.6
	c0.1-0.3,0.3-0.5,0.4-0.8l0-0.1l0,0l0-0.1l0,0c0.1-0.3,0.2-0.5,0.2-0.5c0-0.1,0.1-0.2,0.1-0.3c0.1,0,0.1,0,0.1,0h0
	c0.1,0,0.3,0,0.5-0.1l0,0l0.1-0.3l0,0l0.2-0.1l0.1,0l0,0c0.1-0.1,0.2-0.1,0.3-0.2c0.1,0,0.2-0.1,0.2-0.1l1.8,0l0,0l0.1,0.2l0.3-0.2
	l1.2,0l0,0l-0.2,0.1l0,0c0,0.1-0.1,0.2-0.2,0.3c0,0-0.1,0.1-0.1,0.1l0,0h-0.1l-0.1,0l-0.1,0.1l0,0c-0.2,0.1-0.3,0.1-0.4,0.2
	l-0.1,0.1l0,0l-0.1,0c-0.1,0-0.3,0.1-0.5,0.2c-0.2,0.1-0.3,0.2-0.3,0.4l0,0.2l1-0.6h0.1c0.1,0,0.2-0.1,0.3-0.1l0.1,0
	c0.1,0,0.1,0,0.1,0l0.1,0.1l0.1-0.1l0,0c0-0.1,0-0.1,0-0.1l0,0l0,0c0.1,0,0.1,0,0.2-0.1V19l0.7-0.5L66,18.4c0,0,0-0.1,0-0.1l0,0
	c0,0,0.1,0,0.1,0l0,0c0,0,0.1,0,0.1,0l0.1,0l0-0.1h0.1c-0.1,0.1-0.1,0.2-0.1,0.3v0.1l0.1,0c0,0.2-0.1,0.2-0.2,0.3
	c-0.1,0.1-0.2,0.1-0.4,0.1c-0.2,0-0.3,0.1-0.4,0.2c-0.1,0.1-0.1,0.1-0.2,0.2l-0.1,0.2l0.2-0.1c0.1-0.1,0.3-0.1,0.4-0.2
	c0.2-0.1,0.4-0.2,0.6-0.3c0,0,0.1,0,0.1-0.1c0.1,0,0.1,0,0.2,0c0.2,0,0.3,0.1,0.3,0.1l0,0.1l0.1-0.1c0.1,0,0.1-0.1,0.1-0.1
	c0,0,0.1-0.1,0.1-0.1h0l-0.1,0.3l0.1,0l0.1-0.1c0,0,0.1,0,0.1-0.1h0c0.1,0,0.1,0,0.2-0.1c0.1,0,0.1-0.1,0.1-0.2l0-0.1l-0.3,0
	l0.2-0.4l-0.6,0.4c-0.1,0-0.1-0.1-0.1-0.1l0,0c0,0,0.1-0.1,0.1-0.1l0.1-0.1l0.1-0.1c0.1,0,0.2-0.1,0.2-0.2l0,0
	c0.2,0.1,0.4,0.2,0.5,0.4l0,0c0.1,0.2,0.2,0.4,0.1,0.7c0,0-0.1,0.4-0.2,1h0c0,0-0.1,0-0.1,0c0,0,0,0,0-0.1l0,0c0-0.1,0-0.1,0-0.2
	c0,0-0.1-0.1-0.1-0.1l0.2-0.2l-0.1-0.1L68,19.7c0,0-0.1,0.1-0.1,0.1l-0.7,0.5l0.1,0.1l0.7-0.3l0,0c0,0,0,0.1,0,0.1
	c0,0-0.1,0.1-0.1,0.1c-0.2,0.1-0.4,0.2-0.6,0.3c-0.1,0.1-0.2,0.1-0.2,0.2c-0.1,0.1-0.2,0.1-0.2,0.2c-0.1,0-0.1,0.1-0.2,0.1l-0.1,0
	l0.1,0.2l0.2-0.1c0.1-0.1,0.2-0.1,0.3-0.2c0.1,0,0.2-0.1,0.2-0.1c0.1,0,0.1-0.1,0.1-0.1l0,0c0,0,0.1,0,0.1,0l0.1,0l0,0l0,0
	c0.1-0.1,0.1-0.1,0.2-0.2l0,0l0,0l0,0l0,0l0,0l0-0.1l0,0l0,0l0.1,0c0,0,0.1,0,0.1,0c-0.1,0.6-0.3,1.3-0.6,2l-0.1,0l-0.1,0l0,0
	l0.1,0.1l0,0l0,0l0,0c0,0.1-0.1,0.2-0.1,0.3l0,0h0c0,0.1,0,0.1-0.1,0.2l0,0l0,0v0.1c0,0.1,0,0.1,0,0.1l0,0l0,0l0,0
	c0-0.2,0.1-0.3,0.1-0.3c0,0,0.1-0.1,0.1-0.1c0-0.1,0.1-0.2,0-0.2c0,0,0.1,0,0.1-0.1l0,0l0,0l0,0c0,0,0.1-0.1,0.1-0.1
	c0.1,0,0.1-0.1,0.2-0.1l0.1,0c0,0.1,0,0.1-0.1,0.2c-0.1,0.3-0.2,0.6-0.3,0.8l0,0l0,0c-0.1,0.3-0.3,0.7-0.6,1.1l-0.1,0l-0.1,0.1l0,0
	l0,0l0.1,0l0,0c-0.4,0.6-0.8,1.1-1.1,1.5c-0.3,0.3-0.6,0.7-0.9,1c-0.1,0.1-0.3,0.3-0.4,0.4h0l0,0c-0.3,0.2-0.4,0.4-0.5,0.5
	c-0.1,0.1-0.2,0.2-0.4,0.4l0,0l0,0.1v0l-0.1,0c-0.2,0.1-0.3,0.2-0.6,0.5l0,0l0,0l-0.1,0c-0.2,0.1-0.5,0.2-0.8,0.2
	C62.3,29.3,62.2,29.3,62.2,29.3"/>
<path fill="#FFFFFF" d="M60.8,6.6L60.8,6.6c-0.2,0.5-0.4,0.8-0.7,1.3C60,7.9,60,8,59.9,8.2c-0.1,0.1-0.1,0.3-0.2,0.4l0,0l0,0
	c-0.1,0.3-0.2,0.5-0.4,0.8c0,0-0.1,0-0.1,0c0-0.1,0.1-0.1,0.1-0.2c0.2-0.5,0.5-0.9,0.7-1.4c0.1-0.1,0.2-0.3,0.2-0.4l0,0
	c0.1-0.2,0.2-0.4,0.3-0.6L60.8,6.6 M68.1,12.1c0.1,0.2,0.1,0.4,0.2,0.5l0,0v0c0.1,0.4,0.1,0.5,0.2,0.6c0,0.1,0.1,0.2,0.1,0.5l0,0
	l0,0l0,0l0,0.1c0,0.2,0,0.3,0.1,0.8l0,0h0l0,0.1c0,0.2-0.1,0.7-0.3,1c-0.3,0.4-0.9,0.4-1.1,0.4l-0.1,0l0,0.1c-0.2,0-0.4,0-0.5,0
	c-0.1,0-0.2,0-0.3,0c-0.2,0-0.6,0-0.9,0c-0.4,0-0.8,0-1,0.1l-0.2-0.1l-0.2,0l0,0h0c-0.1,0-0.1,0-0.2,0l1-0.6l-0.1-0.1l-1.6,0.9l0,0
	c-0.1,0-0.2,0-0.6,0l0-0.1h0c-0.1,0-0.2,0-0.2,0c0,0-0.1,0-0.3-0.1c-0.2,0-0.4-0.1-0.6-0.1l0,0l-0.1-0.1l0,0.1l-0.1-0.1
	c-0.1-0.1-0.2-0.2-0.3-0.3l0,0l-0.1,0l0-0.1l0.7-0.5l0,0c0.1-0.2,0.2-0.3,0.5-0.5c0.1-0.1,0.2-0.1,0.3-0.2c0.1,0,0.2-0.1,0.2-0.1
	l0.1-0.1l-0.1-0.1l0,0l0,0c-0.2-0.1-0.4,0-0.6,0.1c0-0.2,0.2-0.4,0.5-0.6c0.1-0.1,0.2-0.1,0.3-0.2c0.1-0.1,0.2-0.1,0.3-0.2
	c0.1-0.1,0.3-0.2,0.5-0.4c0.1,0,0.2-0.1,0.3,0c0.1,0,0.1,0,0.1,0l0,0.1l0,0.1l0.1,0l0,0l0.4-0.5h0h0.1l0,0l0.1,0l0.1-0.2
	c0.1,0,0.2,0,0.3-0.1c0.1-0.1,0.2-0.1,0.2-0.2c0.1-0.1,0.1-0.1,0.2-0.2c0.1,0,0.1-0.1,0.2,0L65.7,12l0.3-0.2c0,0,0.1-0.1,0.1-0.1
	c0.2-0.1,0.3-0.2,0.4-0.4l0.1-0.1l-0.2,0l0,0l0.1,0c0,0,0.1,0,0.1-0.1l0.1-0.1l0.2-0.2l-0.2,0c-0.1,0-0.3,0.1-0.5,0.2
	c-0.2,0.1-0.3,0.2-0.4,0.3l0,0l0-0.1v0c0,0,0-0.1,0-0.2l-0.1-0.1l-0.1,0.1c-0.1,0-0.1,0.1-0.1,0.2c0,0.1,0,0.1,0,0.2l0,0
	c0,0,0,0.1,0,0.1l0,0c0,0-0.1,0-0.1,0l-0.1,0c0,0-0.1,0-0.1,0c0,0-0.1,0.1-0.1,0.1c-0.1,0-0.1,0-0.2,0l0,0c-0.1,0-0.1,0-0.2,0l0,0
	l-0.3,0.4c-0.2,0-0.3,0-0.5,0.1c-0.1,0.1-0.1,0.1-0.2,0.2c-0.1,0.1-0.1,0.1-0.2,0.1c-0.1,0.1-0.2,0.1-0.3,0.1l0.1-0.1l-0.1-0.1
	l-0.8,0.7l0,0.1l-1,0.2l0.5,0.3l0.1-0.2c0,0,0.1,0,0.2-0.1l0.1-0.1l0.1-0.1l0,0l0.5-0.3c-0.1,0.1-0.2,0.2-0.3,0.3
	c0,0-0.1,0.1-0.1,0.1l-0.5,0.3l0,0l0,0.1l-0.4,0.3c0,0-0.1,0-0.1,0.1c-0.1,0-0.1,0.1-0.1,0.1l0,0l0.1,0.1l0.1,0
	c0.1-0.1,0.1-0.1,0.2-0.1l0.1,0c0.1,0,0.2-0.1,0.2-0.1c0,0,0.1-0.1,0.1-0.1l0,0c0,0,0,0.1,0,0.2c-0.1,0.1-0.2,0.2-0.4,0.3
	c0,0-0.1,0.1-0.1,0.1c-0.2,0.1-0.4,0.3-0.4,0.5l0,0.1l0.1,0l0.5-0.5c0,0,0.1,0,0.1,0.1c0,0,0,0.1,0,0.1c0,0-0.1,0.1-0.2,0.2
	c-0.1,0.1-0.2,0.1-0.2,0.2c-0.1,0-0.2,0.1-0.2,0.1c0-0.1-0.1-0.1-0.1-0.2l0.1,0l0,0c-0.1-0.2-0.1-0.2-0.1-0.3c0-0.1,0-0.1-0.1-0.3
	l0-0.1c0-0.1,0-0.1,0-0.2c0,0,0.1-0.1,0-0.2l0-0.1l-0.1,0.1l0-0.1c0-0.1-0.1-0.2-0.1-0.2c0,0,0,0.1,0.1,0.1l0.1,0
	c0-0.1,0-0.1-0.1-0.2c0.1,0,0.1-0.1,0.2-0.1l0,0l0-0.1l0,0c-0.1,0-0.1,0-0.2,0.1c-0.1-0.1-0.1-0.2-0.2-0.3c-0.1-0.2-0.3-0.4-0.4-0.6
	l0.1,0l0.1-0.1l0.2-0.1l0,0l0.1,0l0,0l0.2,0.1l-0.1-0.1c0.1,0,0.1-0.1,0.2-0.1c0,0,0.1,0,0.2-0.1l0.1-0.1l0.1,0c0,0,0.1,0,0.1-0.1
	c0.1-0.1,0.2-0.1,0.2-0.2l0.2-0.1l-0.6,0l0,0.1c0,0.1,0,0.2-0.1,0.2c-0.1,0-0.1,0.1-0.2,0.1c-0.1,0-0.1,0-0.2,0
	c-0.1,0-0.3,0-0.5,0.1c-0.1,0-0.1,0.1-0.1,0.1l-0.1,0.1l0,0l-0.1-0.1l0,0c-0.2-0.2-0.3-0.4-0.3-0.4c-0.1-0.1-0.3-0.3-0.3-0.5l0.2,0
	l0.5-0.5l-0.1-0.1l-0.7,0.4c0-0.1-0.1-0.2-0.1-0.4l0.1-0.1l-0.1-0.1c0-0.1,0-0.2,0.1-0.3l0.1,0l-0.1,0c0-0.1,0.1-0.1,0.1-0.2
	l0.3-0.6l0.5-0.3l-0.1-0.2l-0.1,0c0,0-0.1,0-0.1,0l0.4-0.7l0.1,0l0.3-0.3l-0.1-0.1l-0.2,0.2L61.3,6l0,0l0,0l0.1-0.3l0,0l0,0l0-0.1v0
	c0.1-0.1,0.1-0.1,0.2-0.2c0.2-0.2,0.4-0.3,0.6-0.3l0,0c0.2,0,0.4,0.1,0.6,0.2c0,0,0.5,0.4,1.1,1l0,0c-0.1,0.1-0.2,0.1-0.2,0.2
	l-0.1,0l0,0c-0.1,0.1-0.1,0.1-0.2,0.2l0,0c-0.1,0.1-0.2,0.2-0.2,0.2c0,0-0.1,0-0.1,0c0,0-0.1,0-0.1-0.1l0,0l0,0
	c-0.1,0-0.3,0.1-0.5,0.2c-0.1,0-0.1,0.1-0.2,0.2l0,0.1l0.5,0.1l0,0l0,0l0,0c0,0-0.1,0-0.1,0c-0.1,0-0.1,0-0.2,0.1
	c0,0-0.1,0.1-0.1,0.1l-0.1,0.1l0.2,0c0.1,0,0.3-0.1,0.5-0.2l0,0l0,0l0,0c0.1,0,0.2-0.1,0.2-0.2c0.1-0.1,0.1-0.1,0.2-0.1
	c0.2-0.1,0.4-0.2,0.6-0.2l-0.1,0.3l0.7-0.5l-0.1-0.1c0,0,0,0,0-0.1l0,0l0,0c0.4,0.4,0.7,0.7,1,1.1l0.1,0c0-0.1-0.1-0.2-0.1-0.2
	l0-0.1c0,0-0.1-0.1-0.1-0.1l0-0.1v0l0,0C65,7.2,64.9,7,64.8,6.9c-0.1-0.1-0.2-0.2-0.3-0.3l0.1,0l0,0l-0.1-0.1
	c0.1-0.1,0.1-0.1,0.2-0.2l0,0l0.1,0.2l0,0C64.9,6.6,65,6.7,65,6.8c0.1,0.1,0.2,0.2,0.3,0.3l0,0c0.1,0.1,0.1,0.1,0.2,0.2
	c0.2,0.2,0.4,0.4,0.6,0.7l0,0h0c0.6,0.8,1.3,2,1.5,2.9C67.8,11.2,68,11.7,68.1,12.1 M62.5,5.6L62.5,5.6c0,0.1,0,0.2,0,0.2l0,0
	c0,0,0.1,0,0.1,0l0.1,0l0,0l0,0.1l0,0L62.8,6L63,5.9l-0.1,0l0,0l0,0l0,0v0l0,0l-0.1-0.1C62.8,5.6,62.7,5.5,62.5,5.6L62.5,5.6z
	 M61.6,6.3L61.6,6.3l0.1,0.1l0,0c0,0,0.1,0.1,0.3,0c0,0,0.1-0.1,0.1-0.1l0.1-0.1l-0.1,0c-0.1,0-0.4,0-0.5,0l0,0L61.6,6.3L61.6,6.3z
	 M61,7.4l-0.1,0.5l0.3-0.2l0-0.4L61,7.4z M59.9,11.3l-0.1-0.1l-0.1,0.1l0.1-0.1l-0.1-0.1l-0.1,0.1c-0.1,0.1-0.2,0.1-0.2,0.2
	l-0.1,0.1l0.1,0c0.1,0,0.2,0,0.3-0.1L59.9,11.3L59.9,11.3L59.9,11.3z M61.5,8.7c0.1-0.1,0.2-0.1,0.3-0.2c0.1,0,0.1-0.1,0.2-0.1
	l0.1,0l0-0.1l0,0c0,0-0.1-0.1-0.1-0.1l-0.1,0l0,0l-0.1,0l0,0.1l0,0l0,0l0,0.1l0,0c0,0-0.1,0-0.1,0l-0.1,0l0,0l0,0
	c0,0-0.1,0.1-0.1,0.1c-0.1,0.1-0.2,0.1-0.3,0.1c-0.1,0.1-0.3,0.1-0.5,0.2c-0.1,0-0.1,0.1-0.2,0.1l-0.1,0.1l0.1,0
	c0.2,0.1,0.5,0,0.9-0.3C61.3,8.9,61.4,8.8,61.5,8.7 M61.2,11.4l-0.1-0.1c-0.1-0.1-0.2-0.1-0.3,0c-0.1,0-0.2,0.1-0.3,0.1l-0.1,0.1
	l0,0c-0.1,0.1-0.2,0.2-0.3,0.1l-0.2,0l0.2,0.3l0.1,0c0,0,0.1-0.1,0.1-0.1c0.1,0,0.1-0.1,0.2-0.1c0.1,0,0.1-0.1,0.2-0.1
	c0.2-0.1,0.3-0.1,0.4-0.2L61.2,11.4z M63.1,8.3L63,8.2l-0.2,0.2l-0.1,0.1c-0.1,0-0.1,0.1-0.2,0.1c-0.1,0-0.1,0.1-0.2,0.2l0,0
	l0.1,0.1l0.5-0.3c0,0,0.1,0,0.1-0.1C63,8.4,63.1,8.4,63.1,8.3L63.1,8.3z M65.7,10l-0.2,0.2l-0.1,0.1c0,0-0.1,0.1-0.1,0.1L65,10.5
	l0.1,0.1l0,0l0,0l0,0l0.1-0.1c0,0,0.1-0.1,0.1-0.1l0.2-0.1c0.1,0,0.1-0.1,0.2-0.1l0.2,0L65.7,10z M66.1,8.6L66.1,8.6L66.1,8.6
	c0,0.1,0.1,0.2,0.1,0.3l0,0l0,0l0,0c0,0,0-0.1-0.1-0.2l0,0L66.1,8.6L66.1,8.6L66.1,8.6z M65.4,7.8L65.4,7.8L65.4,7.8
	c0.1,0.1,0.1,0.2,0.2,0.3l0,0l0,0c0,0,0.1,0.1,0.1,0.1v0l0,0l0.1,0l0,0l0.1,0l0,0v0l0,0c-0.1-0.1-0.2-0.2-0.2-0.2l0,0
	c0,0,0-0.1-0.1-0.1C65.5,7.8,65.5,7.8,65.4,7.8L65.4,7.8z M62.8,11.4L62.8,11.4l-0.1-0.2c-0.1-0.1-0.1-0.1-0.2-0.1
	c-0.1,0-0.2,0.1-0.3,0.1l-0.1,0.1c-0.1,0.1-0.2,0.1-0.3,0.1l-0.1,0l0,0.1l0,0c0,0.1-0.1,0.1,0,0.2l0.1,0l0,0l0,0
	c0,0,0.1-0.1,0.1-0.1c0.3-0.2,0.5-0.3,0.7-0.3L62.8,11.4z M64.3,9.3c0-0.1,0.1-0.1,0.2-0.2C64.6,9.1,64.8,9,65,9
	c0.2-0.1,0.4-0.1,0.6-0.2l0.2-0.1l-0.2,0c-0.4,0-0.8,0.2-1.1,0.4c-0.1,0.1-0.2,0.1-0.2,0.2l-0.1,0.1l0,0l0,0L64,9.3l0,0l-0.1,0
	c-0.1,0.1-0.2,0.1-0.2,0.1l-0.1,0.1l0.1,0.1c0.1,0,0.2,0,0.2,0C64,9.6,64,9.5,64,9.5l0,0l0,0l0.1-0.1l0.1,0L64.3,9.3L64.3,9.3z
	 M65.8,9l0.1-0.2l-0.9,0.4L65,9.1l-0.7,0.3l0,0.1l0.1,0c0.1,0,0.2,0,0.2,0.1l0,0v0.1l-0.1,0.1l0.1,0.1l0.1-0.1c0,0,0.1-0.1,0.1-0.1
	c0.1,0,0.1-0.1,0.2-0.1c0.1,0,0.1-0.1,0.2-0.1C65.5,9.3,65.7,9.2,65.8,9 M65.7,11.1L65.6,11l-1.4,0.8l0,0.1l0.3,0L65.7,11.1z
	 M60.9,6.3C61,6.2,61,6.1,61.1,5.9l-0.3,0.2c0,0.1-0.1,0.2-0.1,0.2L60.9,6.3L60.9,6.3 M63.6,5.7c0.1,0.1,0.2,0.1,0.3,0.2
	C64,6,64.1,6.1,64.2,6.2c0.1,0,0.1-0.1,0.2-0.1C64.2,6,64,5.7,63.8,5.6C63.7,5.6,63.6,5.6,63.6,5.7 M63,5L63,5L63,5
	c-0.4-0.2-0.8-0.3-1.2-0.1c-0.4,0.2-0.6,0.6-0.8,0.8l0.1-0.1l0,0l0,0l0,0l0,0l0,0l0,0l0,0c0.1-0.2,0.3-0.5,0.6-0.6
	c0.3-0.1,0.5-0.1,0.8,0c0.3,0.1,0.5,0.3,0.6,0.4l0.2-0.1l0,0C63.3,5.2,63.2,5.2,63,5"/>
<path fill="#FFFFFF" d="M130.5,24.8c-1.1,0-2-0.9-2-2c0-1.1,0.9-2,2-2s2,0.9,2,2C132.6,23.9,131.7,24.8,130.5,24.8 M130.5,21
	c-1,0-1.8,0.8-1.8,1.8c0,1,0.8,1.8,1.8,1.8c1,0,1.8-0.8,1.8-1.8C132.3,21.8,131.6,21,130.5,21 M131,23.1l0.5,0.8H131l-0.5-0.7h-0.4
	v0.7h-0.5v-2.1h0.9c0.5,0,0.8,0.3,0.8,0.7C131.5,22.7,131.3,23,131,23.1 M130.6,22.1h-0.5v0.6h0.5c0.2,0,0.4-0.1,0.4-0.3
	C131,22.2,130.9,22.1,130.6,22.1"/>
</svg>
